<svg width="206" height="206" viewBox="0 0 206 206" fill="none" xmlns="http://www.w3.org/2000/svg">
<path d="M0 0H3.02053V3.02053H0V0Z" fill="#9E9E9E" fill-opacity="0.33"/>
<path d="M14.4985 0H17.5191V3.02053H14.4985V0Z" fill="#9E9E9E" fill-opacity="0.33"/>
<path d="M28.9971 0H32.0176V3.02053H28.9971V0Z" fill="#9E9E9E" fill-opacity="0.33"/>
<path d="M43.4956 0H46.5161V3.02053H43.4956V0Z" fill="#9E9E9E" fill-opacity="0.33"/>
<path d="M57.9941 0H61.0147V3.02053H57.9941V0Z" fill="#9E9E9E" fill-opacity="0.33"/>
<path d="M72.4927 0H75.5132V3.02053H72.4927V0Z" fill="#9E9E9E" fill-opacity="0.33"/>
<path d="M86.9912 0H90.0117V3.02053H86.9912V0Z" fill="#9E9E9E" fill-opacity="0.33"/>
<path d="M101.49 0H104.51V3.02053H101.49V0Z" fill="#9E9E9E" fill-opacity="0.33"/>
<path d="M115.988 0H119.009V3.02053H115.988V0Z" fill="#9E9E9E" fill-opacity="0.33"/>
<path d="M130.487 0H133.507V3.02053H130.487V0Z" fill="#9E9E9E" fill-opacity="0.33"/>
<path d="M144.985 0H148.006V3.02053H144.985V0Z" fill="#9E9E9E" fill-opacity="0.33"/>
<path d="M159.484 0H162.504V3.02053H159.484V0Z" fill="#9E9E9E" fill-opacity="0.33"/>
<path d="M173.982 0H177.003V3.02053H173.982V0Z" fill="#9E9E9E" fill-opacity="0.33"/>
<path d="M188.481 0H191.501V3.02053H188.481V0Z" fill="#9E9E9E" fill-opacity="0.33"/>
<path d="M202.979 0H206V3.02053H202.979V0Z" fill="#9E9E9E" fill-opacity="0.33"/>
<path d="M0 14.4985H3.02053V17.5191H0V14.4985Z" fill="#9E9E9E" fill-opacity="0.33"/>
<path d="M14.4985 14.4985H17.5191V17.5191H14.4985V14.4985Z" fill="#9E9E9E" fill-opacity="0.33"/>
<path d="M28.9971 14.4985H32.0176V17.5191H28.9971V14.4985Z" fill="#9E9E9E" fill-opacity="0.33"/>
<path d="M43.4956 14.4985H46.5161V17.5191H43.4956V14.4985Z" fill="#9E9E9E" fill-opacity="0.33"/>
<path d="M57.9941 14.4985H61.0147V17.5191H57.9941V14.4985Z" fill="#9E9E9E" fill-opacity="0.33"/>
<path d="M72.4927 14.4985H75.5132V17.5191H72.4927V14.4985Z" fill="#9E9E9E" fill-opacity="0.33"/>
<path d="M86.9912 14.4985H90.0117V17.5191H86.9912V14.4985Z" fill="#9E9E9E" fill-opacity="0.33"/>
<path d="M101.49 14.4985H104.51V17.5191H101.49V14.4985Z" fill="#9E9E9E" fill-opacity="0.33"/>
<path d="M115.988 14.4985H119.009V17.5191H115.988V14.4985Z" fill="#9E9E9E" fill-opacity="0.33"/>
<path d="M130.487 14.4985H133.507V17.5191H130.487V14.4985Z" fill="#9E9E9E" fill-opacity="0.33"/>
<path d="M144.985 14.4985H148.006V17.5191H144.985V14.4985Z" fill="#9E9E9E" fill-opacity="0.33"/>
<path d="M159.484 14.4985H162.504V17.5191H159.484V14.4985Z" fill="#9E9E9E" fill-opacity="0.33"/>
<path d="M173.982 14.4985H177.003V17.5191H173.982V14.4985Z" fill="#9E9E9E" fill-opacity="0.33"/>
<path d="M188.481 14.4985H191.501V17.5191H188.481V14.4985Z" fill="#9E9E9E" fill-opacity="0.33"/>
<path d="M202.979 14.4985H206V17.5191H202.979V14.4985Z" fill="#9E9E9E" fill-opacity="0.33"/>
<path d="M0 28.9971H3.02053V32.0176H0V28.9971Z" fill="#9E9E9E" fill-opacity="0.33"/>
<path d="M14.4985 28.9971H17.5191V32.0176H14.4985V28.9971Z" fill="#9E9E9E" fill-opacity="0.33"/>
<path d="M28.9971 28.9971H32.0176V32.0176H28.9971V28.9971Z" fill="#9E9E9E" fill-opacity="0.33"/>
<path d="M43.4956 28.9971H46.5161V32.0176H43.4956V28.9971Z" fill="#9E9E9E" fill-opacity="0.33"/>
<path d="M57.9941 28.9971H61.0147V32.0176H57.9941V28.9971Z" fill="#9E9E9E" fill-opacity="0.33"/>
<path d="M72.4927 28.9971H75.5132V32.0176H72.4927V28.9971Z" fill="#9E9E9E" fill-opacity="0.33"/>
<path d="M86.9912 28.9971H90.0117V32.0176H86.9912V28.9971Z" fill="#9E9E9E" fill-opacity="0.33"/>
<path d="M101.49 28.9971H104.51V32.0176H101.49V28.9971Z" fill="#9E9E9E" fill-opacity="0.33"/>
<path d="M115.988 28.9971H119.009V32.0176H115.988V28.9971Z" fill="#9E9E9E" fill-opacity="0.33"/>
<path d="M130.487 28.9971H133.507V32.0176H130.487V28.9971Z" fill="#9E9E9E" fill-opacity="0.33"/>
<path d="M144.985 28.9971H148.006V32.0176H144.985V28.9971Z" fill="#9E9E9E" fill-opacity="0.33"/>
<path d="M159.484 28.9971H162.504V32.0176H159.484V28.9971Z" fill="#9E9E9E" fill-opacity="0.33"/>
<path d="M173.982 28.9971H177.003V32.0176H173.982V28.9971Z" fill="#9E9E9E" fill-opacity="0.33"/>
<path d="M188.481 28.9971H191.501V32.0176H188.481V28.9971Z" fill="#9E9E9E" fill-opacity="0.33"/>
<path d="M202.979 28.9971H206V32.0176H202.979V28.9971Z" fill="#9E9E9E" fill-opacity="0.33"/>
<path d="M0 43.4956H3.02053V46.5161H0V43.4956Z" fill="#9E9E9E" fill-opacity="0.33"/>
<path d="M14.4985 43.4956H17.5191V46.5161H14.4985V43.4956Z" fill="#9E9E9E" fill-opacity="0.33"/>
<path d="M28.9971 43.4956H32.0176V46.5161H28.9971V43.4956Z" fill="#9E9E9E" fill-opacity="0.33"/>
<path d="M43.4956 43.4956H46.5161V46.5161H43.4956V43.4956Z" fill="#9E9E9E" fill-opacity="0.33"/>
<path d="M57.9941 43.4956H61.0147V46.5161H57.9941V43.4956Z" fill="#9E9E9E" fill-opacity="0.33"/>
<path d="M72.4927 43.4956H75.5132V46.5161H72.4927V43.4956Z" fill="#9E9E9E" fill-opacity="0.33"/>
<path d="M86.9912 43.4956H90.0117V46.5161H86.9912V43.4956Z" fill="#9E9E9E" fill-opacity="0.33"/>
<path d="M101.49 43.4956H104.51V46.5161H101.49V43.4956Z" fill="#9E9E9E" fill-opacity="0.33"/>
<path d="M115.988 43.4956H119.009V46.5161H115.988V43.4956Z" fill="#9E9E9E" fill-opacity="0.33"/>
<path d="M130.487 43.4956H133.507V46.5161H130.487V43.4956Z" fill="#9E9E9E" fill-opacity="0.33"/>
<path d="M144.985 43.4956H148.006V46.5161H144.985V43.4956Z" fill="#9E9E9E" fill-opacity="0.33"/>
<path d="M159.484 43.4956H162.504V46.5161H159.484V43.4956Z" fill="#9E9E9E" fill-opacity="0.33"/>
<path d="M173.982 43.4956H177.003V46.5161H173.982V43.4956Z" fill="#9E9E9E" fill-opacity="0.33"/>
<path d="M188.481 43.4956H191.501V46.5161H188.481V43.4956Z" fill="#9E9E9E" fill-opacity="0.33"/>
<path d="M202.979 43.4956H206V46.5161H202.979V43.4956Z" fill="#9E9E9E" fill-opacity="0.33"/>
<path d="M0 57.9941H3.02053V61.0147H0V57.9941Z" fill="#9E9E9E" fill-opacity="0.33"/>
<path d="M14.4985 57.9941H17.5191V61.0147H14.4985V57.9941Z" fill="#9E9E9E" fill-opacity="0.33"/>
<path d="M28.9971 57.9941H32.0176V61.0147H28.9971V57.9941Z" fill="#9E9E9E" fill-opacity="0.33"/>
<path d="M43.4956 57.9941H46.5161V61.0147H43.4956V57.9941Z" fill="#9E9E9E" fill-opacity="0.33"/>
<path d="M57.9941 57.9941H61.0147V61.0147H57.9941V57.9941Z" fill="#9E9E9E" fill-opacity="0.33"/>
<path d="M72.4927 57.9941H75.5132V61.0147H72.4927V57.9941Z" fill="#9E9E9E" fill-opacity="0.33"/>
<path d="M86.9912 57.9941H90.0117V61.0147H86.9912V57.9941Z" fill="#9E9E9E" fill-opacity="0.33"/>
<path d="M101.49 57.9941H104.51V61.0147H101.49V57.9941Z" fill="#9E9E9E" fill-opacity="0.33"/>
<path d="M115.988 57.9941H119.009V61.0147H115.988V57.9941Z" fill="#9E9E9E" fill-opacity="0.33"/>
<path d="M130.487 57.9941H133.507V61.0147H130.487V57.9941Z" fill="#9E9E9E" fill-opacity="0.33"/>
<path d="M144.985 57.9941H148.006V61.0147H144.985V57.9941Z" fill="#9E9E9E" fill-opacity="0.33"/>
<path d="M159.484 57.9941H162.504V61.0147H159.484V57.9941Z" fill="#9E9E9E" fill-opacity="0.33"/>
<path d="M173.982 57.9941H177.003V61.0147H173.982V57.9941Z" fill="#9E9E9E" fill-opacity="0.33"/>
<path d="M188.481 57.9941H191.501V61.0147H188.481V57.9941Z" fill="#9E9E9E" fill-opacity="0.33"/>
<path d="M202.979 57.9941H206V61.0147H202.979V57.9941Z" fill="#9E9E9E" fill-opacity="0.33"/>
<path d="M0 72.4927H3.02053V75.5132H0V72.4927Z" fill="#9E9E9E" fill-opacity="0.33"/>
<path d="M14.4985 72.4927H17.5191V75.5132H14.4985V72.4927Z" fill="#9E9E9E" fill-opacity="0.33"/>
<path d="M28.9971 72.4927H32.0176V75.5132H28.9971V72.4927Z" fill="#9E9E9E" fill-opacity="0.33"/>
<path d="M43.4956 72.4927H46.5161V75.5132H43.4956V72.4927Z" fill="#9E9E9E" fill-opacity="0.33"/>
<path d="M57.9941 72.4927H61.0147V75.5132H57.9941V72.4927Z" fill="#9E9E9E" fill-opacity="0.33"/>
<path d="M72.4927 72.4927H75.5132V75.5132H72.4927V72.4927Z" fill="#9E9E9E" fill-opacity="0.33"/>
<path d="M86.9912 72.4927H90.0117V75.5132H86.9912V72.4927Z" fill="#9E9E9E" fill-opacity="0.33"/>
<path d="M101.49 72.4927H104.51V75.5132H101.49V72.4927Z" fill="#9E9E9E" fill-opacity="0.33"/>
<path d="M115.988 72.4927H119.009V75.5132H115.988V72.4927Z" fill="#9E9E9E" fill-opacity="0.33"/>
<path d="M130.487 72.4927H133.507V75.5132H130.487V72.4927Z" fill="#9E9E9E" fill-opacity="0.33"/>
<path d="M144.985 72.4927H148.006V75.5132H144.985V72.4927Z" fill="#9E9E9E" fill-opacity="0.33"/>
<path d="M159.484 72.4927H162.504V75.5132H159.484V72.4927Z" fill="#9E9E9E" fill-opacity="0.33"/>
<path d="M173.982 72.4927H177.003V75.5132H173.982V72.4927Z" fill="#9E9E9E" fill-opacity="0.33"/>
<path d="M188.481 72.4927H191.501V75.5132H188.481V72.4927Z" fill="#9E9E9E" fill-opacity="0.33"/>
<path d="M202.979 72.4927H206V75.5132H202.979V72.4927Z" fill="#9E9E9E" fill-opacity="0.33"/>
<path d="M0 86.9912H3.02053V90.0117H0V86.9912Z" fill="#9E9E9E" fill-opacity="0.33"/>
<path d="M14.4985 86.9912H17.5191V90.0117H14.4985V86.9912Z" fill="#9E9E9E" fill-opacity="0.33"/>
<path d="M28.9971 86.9912H32.0176V90.0117H28.9971V86.9912Z" fill="#9E9E9E" fill-opacity="0.33"/>
<path d="M43.4956 86.9912H46.5161V90.0117H43.4956V86.9912Z" fill="#9E9E9E" fill-opacity="0.33"/>
<path d="M57.9941 86.9912H61.0147V90.0117H57.9941V86.9912Z" fill="#9E9E9E" fill-opacity="0.33"/>
<path d="M72.4927 86.9912H75.5132V90.0117H72.4927V86.9912Z" fill="#9E9E9E" fill-opacity="0.33"/>
<path d="M86.9912 86.9912H90.0117V90.0117H86.9912V86.9912Z" fill="#9E9E9E" fill-opacity="0.33"/>
<path d="M101.49 86.9912H104.51V90.0117H101.49V86.9912Z" fill="#9E9E9E" fill-opacity="0.33"/>
<path d="M115.988 86.9912H119.009V90.0117H115.988V86.9912Z" fill="#9E9E9E" fill-opacity="0.33"/>
<path d="M130.487 86.9912H133.507V90.0117H130.487V86.9912Z" fill="#9E9E9E" fill-opacity="0.33"/>
<path d="M144.985 86.9912H148.006V90.0117H144.985V86.9912Z" fill="#9E9E9E" fill-opacity="0.33"/>
<path d="M159.484 86.9912H162.504V90.0117H159.484V86.9912Z" fill="#9E9E9E" fill-opacity="0.33"/>
<path d="M173.982 86.9912H177.003V90.0117H173.982V86.9912Z" fill="#9E9E9E" fill-opacity="0.33"/>
<path d="M188.481 86.9912H191.501V90.0117H188.481V86.9912Z" fill="#9E9E9E" fill-opacity="0.33"/>
<path d="M202.979 86.9912H206V90.0117H202.979V86.9912Z" fill="#9E9E9E" fill-opacity="0.33"/>
<path d="M0 101.49H3.02053V104.51H0V101.49Z" fill="#9E9E9E" fill-opacity="0.33"/>
<path d="M14.4985 101.49H17.5191V104.51H14.4985V101.49Z" fill="#9E9E9E" fill-opacity="0.33"/>
<path d="M28.9971 101.49H32.0176V104.51H28.9971V101.49Z" fill="#9E9E9E" fill-opacity="0.33"/>
<path d="M43.4956 101.49H46.5161V104.51H43.4956V101.49Z" fill="#9E9E9E" fill-opacity="0.33"/>
<path d="M57.9941 101.49H61.0147V104.51H57.9941V101.49Z" fill="#9E9E9E" fill-opacity="0.33"/>
<path d="M72.4927 101.49H75.5132V104.51H72.4927V101.49Z" fill="#9E9E9E" fill-opacity="0.33"/>
<path d="M86.9912 101.49H90.0117V104.51H86.9912V101.49Z" fill="#9E9E9E" fill-opacity="0.33"/>
<path d="M101.49 101.49H104.51V104.51H101.49V101.49Z" fill="#9E9E9E" fill-opacity="0.33"/>
<path d="M115.988 101.49H119.009V104.51H115.988V101.49Z" fill="#9E9E9E" fill-opacity="0.33"/>
<path d="M130.487 101.49H133.507V104.51H130.487V101.49Z" fill="#9E9E9E" fill-opacity="0.33"/>
<path d="M144.985 101.49H148.006V104.51H144.985V101.49Z" fill="#9E9E9E" fill-opacity="0.33"/>
<path d="M159.484 101.49H162.504V104.51H159.484V101.49Z" fill="#9E9E9E" fill-opacity="0.33"/>
<path d="M173.982 101.49H177.003V104.51H173.982V101.49Z" fill="#9E9E9E" fill-opacity="0.33"/>
<path d="M188.481 101.49H191.501V104.51H188.481V101.49Z" fill="#9E9E9E" fill-opacity="0.33"/>
<path d="M202.979 101.49H206V104.51H202.979V101.49Z" fill="#9E9E9E" fill-opacity="0.33"/>
<path d="M0 115.988H3.02053V119.009H0V115.988Z" fill="#9E9E9E" fill-opacity="0.33"/>
<path d="M14.4985 115.988H17.5191V119.009H14.4985V115.988Z" fill="#9E9E9E" fill-opacity="0.33"/>
<path d="M28.9971 115.988H32.0176V119.009H28.9971V115.988Z" fill="#9E9E9E" fill-opacity="0.33"/>
<path d="M43.4956 115.988H46.5161V119.009H43.4956V115.988Z" fill="#9E9E9E" fill-opacity="0.33"/>
<path d="M57.9941 115.988H61.0147V119.009H57.9941V115.988Z" fill="#9E9E9E" fill-opacity="0.33"/>
<path d="M72.4927 115.988H75.5132V119.009H72.4927V115.988Z" fill="#9E9E9E" fill-opacity="0.33"/>
<path d="M86.9912 115.988H90.0117V119.009H86.9912V115.988Z" fill="#9E9E9E" fill-opacity="0.33"/>
<path d="M101.49 115.988H104.51V119.009H101.49V115.988Z" fill="#9E9E9E" fill-opacity="0.33"/>
<path d="M115.988 115.988H119.009V119.009H115.988V115.988Z" fill="#9E9E9E" fill-opacity="0.33"/>
<path d="M130.487 115.988H133.507V119.009H130.487V115.988Z" fill="#9E9E9E" fill-opacity="0.33"/>
<path d="M144.985 115.988H148.006V119.009H144.985V115.988Z" fill="#9E9E9E" fill-opacity="0.33"/>
<path d="M159.484 115.988H162.504V119.009H159.484V115.988Z" fill="#9E9E9E" fill-opacity="0.33"/>
<path d="M173.982 115.988H177.003V119.009H173.982V115.988Z" fill="#9E9E9E" fill-opacity="0.33"/>
<path d="M188.481 115.988H191.501V119.009H188.481V115.988Z" fill="#9E9E9E" fill-opacity="0.33"/>
<path d="M202.979 115.988H206V119.009H202.979V115.988Z" fill="#9E9E9E" fill-opacity="0.33"/>
<path d="M0 130.487H3.02053V133.507H0V130.487Z" fill="#9E9E9E" fill-opacity="0.33"/>
<path d="M14.4985 130.487H17.5191V133.507H14.4985V130.487Z" fill="#9E9E9E" fill-opacity="0.33"/>
<path d="M28.9971 130.487H32.0176V133.507H28.9971V130.487Z" fill="#9E9E9E" fill-opacity="0.33"/>
<path d="M43.4956 130.487H46.5161V133.507H43.4956V130.487Z" fill="#9E9E9E" fill-opacity="0.33"/>
<path d="M57.9941 130.487H61.0147V133.507H57.9941V130.487Z" fill="#9E9E9E" fill-opacity="0.33"/>
<path d="M72.4927 130.487H75.5132V133.507H72.4927V130.487Z" fill="#9E9E9E" fill-opacity="0.33"/>
<path d="M86.9912 130.487H90.0117V133.507H86.9912V130.487Z" fill="#9E9E9E" fill-opacity="0.33"/>
<path d="M101.49 130.487H104.51V133.507H101.49V130.487Z" fill="#9E9E9E" fill-opacity="0.33"/>
<path d="M115.988 130.487H119.009V133.507H115.988V130.487Z" fill="#9E9E9E" fill-opacity="0.33"/>
<path d="M130.487 130.487H133.507V133.507H130.487V130.487Z" fill="#9E9E9E" fill-opacity="0.33"/>
<path d="M144.985 130.487H148.006V133.507H144.985V130.487Z" fill="#9E9E9E" fill-opacity="0.33"/>
<path d="M159.484 130.487H162.504V133.507H159.484V130.487Z" fill="#9E9E9E" fill-opacity="0.33"/>
<path d="M173.982 130.487H177.003V133.507H173.982V130.487Z" fill="#9E9E9E" fill-opacity="0.33"/>
<path d="M188.481 130.487H191.501V133.507H188.481V130.487Z" fill="#9E9E9E" fill-opacity="0.33"/>
<path d="M202.979 130.487H206V133.507H202.979V130.487Z" fill="#9E9E9E" fill-opacity="0.33"/>
<path d="M0 144.985H3.02053V148.006H0V144.985Z" fill="#9E9E9E" fill-opacity="0.33"/>
<path d="M14.4985 144.985H17.5191V148.006H14.4985V144.985Z" fill="#9E9E9E" fill-opacity="0.33"/>
<path d="M28.9971 144.985H32.0176V148.006H28.9971V144.985Z" fill="#9E9E9E" fill-opacity="0.33"/>
<path d="M43.4956 144.985H46.5161V148.006H43.4956V144.985Z" fill="#9E9E9E" fill-opacity="0.33"/>
<path d="M57.9941 144.985H61.0147V148.006H57.9941V144.985Z" fill="#9E9E9E" fill-opacity="0.33"/>
<path d="M72.4927 144.985H75.5132V148.006H72.4927V144.985Z" fill="#9E9E9E" fill-opacity="0.33"/>
<path d="M86.9912 144.985H90.0117V148.006H86.9912V144.985Z" fill="#9E9E9E" fill-opacity="0.33"/>
<path d="M101.49 144.985H104.51V148.006H101.49V144.985Z" fill="#9E9E9E" fill-opacity="0.33"/>
<path d="M115.988 144.985H119.009V148.006H115.988V144.985Z" fill="#9E9E9E" fill-opacity="0.33"/>
<path d="M130.487 144.985H133.507V148.006H130.487V144.985Z" fill="#9E9E9E" fill-opacity="0.33"/>
<path d="M144.985 144.985H148.006V148.006H144.985V144.985Z" fill="#9E9E9E" fill-opacity="0.33"/>
<path d="M159.484 144.985H162.504V148.006H159.484V144.985Z" fill="#9E9E9E" fill-opacity="0.33"/>
<path d="M173.982 144.985H177.003V148.006H173.982V144.985Z" fill="#9E9E9E" fill-opacity="0.33"/>
<path d="M188.481 144.985H191.501V148.006H188.481V144.985Z" fill="#9E9E9E" fill-opacity="0.33"/>
<path d="M202.979 144.985H206V148.006H202.979V144.985Z" fill="#9E9E9E" fill-opacity="0.33"/>
<path d="M0 159.484H3.02053V162.504H0V159.484Z" fill="#9E9E9E" fill-opacity="0.33"/>
<path d="M14.4985 159.484H17.5191V162.504H14.4985V159.484Z" fill="#9E9E9E" fill-opacity="0.33"/>
<path d="M28.9971 159.484H32.0176V162.504H28.9971V159.484Z" fill="#9E9E9E" fill-opacity="0.33"/>
<path d="M43.4956 159.484H46.5161V162.504H43.4956V159.484Z" fill="#9E9E9E" fill-opacity="0.33"/>
<path d="M57.9941 159.484H61.0147V162.504H57.9941V159.484Z" fill="#9E9E9E" fill-opacity="0.33"/>
<path d="M72.4927 159.484H75.5132V162.504H72.4927V159.484Z" fill="#9E9E9E" fill-opacity="0.33"/>
<path d="M86.9912 159.484H90.0117V162.504H86.9912V159.484Z" fill="#9E9E9E" fill-opacity="0.33"/>
<path d="M101.49 159.484H104.51V162.504H101.49V159.484Z" fill="#9E9E9E" fill-opacity="0.33"/>
<path d="M115.988 159.484H119.009V162.504H115.988V159.484Z" fill="#9E9E9E" fill-opacity="0.33"/>
<path d="M130.487 159.484H133.507V162.504H130.487V159.484Z" fill="#9E9E9E" fill-opacity="0.33"/>
<path d="M144.985 159.484H148.006V162.504H144.985V159.484Z" fill="#9E9E9E" fill-opacity="0.33"/>
<path d="M159.484 159.484H162.504V162.504H159.484V159.484Z" fill="#9E9E9E" fill-opacity="0.33"/>
<path d="M173.982 159.484H177.003V162.504H173.982V159.484Z" fill="#9E9E9E" fill-opacity="0.33"/>
<path d="M188.481 159.484H191.501V162.504H188.481V159.484Z" fill="#9E9E9E" fill-opacity="0.33"/>
<path d="M202.979 159.484H206V162.504H202.979V159.484Z" fill="#9E9E9E" fill-opacity="0.33"/>
<path d="M0 173.982H3.02053V177.003H0V173.982Z" fill="#9E9E9E" fill-opacity="0.33"/>
<path d="M14.4985 173.982H17.5191V177.003H14.4985V173.982Z" fill="#9E9E9E" fill-opacity="0.33"/>
<path d="M28.9971 173.982H32.0176V177.003H28.9971V173.982Z" fill="#9E9E9E" fill-opacity="0.33"/>
<path d="M43.4956 173.982H46.5161V177.003H43.4956V173.982Z" fill="#9E9E9E" fill-opacity="0.33"/>
<path d="M57.9941 173.982H61.0147V177.003H57.9941V173.982Z" fill="#9E9E9E" fill-opacity="0.33"/>
<path d="M72.4927 173.982H75.5132V177.003H72.4927V173.982Z" fill="#9E9E9E" fill-opacity="0.33"/>
<path d="M86.9912 173.982H90.0117V177.003H86.9912V173.982Z" fill="#9E9E9E" fill-opacity="0.33"/>
<path d="M101.49 173.982H104.51V177.003H101.49V173.982Z" fill="#9E9E9E" fill-opacity="0.33"/>
<path d="M115.988 173.982H119.009V177.003H115.988V173.982Z" fill="#9E9E9E" fill-opacity="0.33"/>
<path d="M130.487 173.982H133.507V177.003H130.487V173.982Z" fill="#9E9E9E" fill-opacity="0.33"/>
<path d="M144.985 173.982H148.006V177.003H144.985V173.982Z" fill="#9E9E9E" fill-opacity="0.33"/>
<path d="M159.484 173.982H162.504V177.003H159.484V173.982Z" fill="#9E9E9E" fill-opacity="0.33"/>
<path d="M173.982 173.982H177.003V177.003H173.982V173.982Z" fill="#9E9E9E" fill-opacity="0.33"/>
<path d="M188.481 173.982H191.501V177.003H188.481V173.982Z" fill="#9E9E9E" fill-opacity="0.33"/>
<path d="M202.979 173.982H206V177.003H202.979V173.982Z" fill="#9E9E9E" fill-opacity="0.33"/>
<path d="M0 188.481H3.02053V191.501H0V188.481Z" fill="#9E9E9E" fill-opacity="0.33"/>
<path d="M14.4985 188.481H17.5191V191.501H14.4985V188.481Z" fill="#9E9E9E" fill-opacity="0.33"/>
<path d="M28.9971 188.481H32.0176V191.501H28.9971V188.481Z" fill="#9E9E9E" fill-opacity="0.33"/>
<path d="M43.4956 188.481H46.5161V191.501H43.4956V188.481Z" fill="#9E9E9E" fill-opacity="0.33"/>
<path d="M57.9941 188.481H61.0147V191.501H57.9941V188.481Z" fill="#9E9E9E" fill-opacity="0.33"/>
<path d="M72.4927 188.481H75.5132V191.501H72.4927V188.481Z" fill="#9E9E9E" fill-opacity="0.33"/>
<path d="M86.9912 188.481H90.0117V191.501H86.9912V188.481Z" fill="#9E9E9E" fill-opacity="0.33"/>
<path d="M101.49 188.481H104.51V191.501H101.49V188.481Z" fill="#9E9E9E" fill-opacity="0.33"/>
<path d="M115.988 188.481H119.009V191.501H115.988V188.481Z" fill="#9E9E9E" fill-opacity="0.33"/>
<path d="M130.487 188.481H133.507V191.501H130.487V188.481Z" fill="#9E9E9E" fill-opacity="0.33"/>
<path d="M144.985 188.481H148.006V191.501H144.985V188.481Z" fill="#9E9E9E" fill-opacity="0.33"/>
<path d="M159.484 188.481H162.504V191.501H159.484V188.481Z" fill="#9E9E9E" fill-opacity="0.33"/>
<path d="M173.982 188.481H177.003V191.501H173.982V188.481Z" fill="#9E9E9E" fill-opacity="0.33"/>
<path d="M188.481 188.481H191.501V191.501H188.481V188.481Z" fill="#9E9E9E" fill-opacity="0.33"/>
<path d="M202.979 188.481H206V191.501H202.979V188.481Z" fill="#9E9E9E" fill-opacity="0.33"/>
<path d="M0 202.979H3.02053V206H0V202.979Z" fill="#9E9E9E" fill-opacity="0.33"/>
<path d="M14.4985 202.979H17.5191V206H14.4985V202.979Z" fill="#9E9E9E" fill-opacity="0.33"/>
<path d="M28.9971 202.979H32.0176V206H28.9971V202.979Z" fill="#9E9E9E" fill-opacity="0.33"/>
<path d="M43.4956 202.979H46.5161V206H43.4956V202.979Z" fill="#9E9E9E" fill-opacity="0.33"/>
<path d="M57.9941 202.979H61.0147V206H57.9941V202.979Z" fill="#9E9E9E" fill-opacity="0.33"/>
<path d="M72.4927 202.979H75.5132V206H72.4927V202.979Z" fill="#9E9E9E" fill-opacity="0.33"/>
<path d="M86.9912 202.979H90.0117V206H86.9912V202.979Z" fill="#9E9E9E" fill-opacity="0.33"/>
<path d="M101.49 202.979H104.51V206H101.49V202.979Z" fill="#9E9E9E" fill-opacity="0.33"/>
<path d="M115.988 202.979H119.009V206H115.988V202.979Z" fill="#9E9E9E" fill-opacity="0.33"/>
<path d="M130.487 202.979H133.507V206H130.487V202.979Z" fill="#9E9E9E" fill-opacity="0.33"/>
<path d="M144.985 202.979H148.006V206H144.985V202.979Z" fill="#9E9E9E" fill-opacity="0.33"/>
<path d="M159.484 202.979H162.504V206H159.484V202.979Z" fill="#9E9E9E" fill-opacity="0.33"/>
<path d="M173.982 202.979H177.003V206H173.982V202.979Z" fill="#9E9E9E" fill-opacity="0.33"/>
<path d="M188.481 202.979H191.501V206H188.481V202.979Z" fill="#9E9E9E" fill-opacity="0.33"/>
<path d="M202.979 202.979H206V206H202.979V202.979Z" fill="#9E9E9E" fill-opacity="0.33"/>
</svg>
