<svg width="107" height="49" viewBox="0 0 107 49" fill="none" xmlns="http://www.w3.org/2000/svg">
<path d="M39.1856 0V37.2559H48.1964V0H39.1856Z" fill="white"/>
<path d="M79.0696 26.1658C79.0696 19.7543 74.6508 14.3825 68.1094 14.3825C65.4235 14.3825 63.1708 15.119 61.3514 16.5052V15.0757H52.3406V48.5193H61.3514V35.5231C63.0842 36.866 65.4235 37.9491 68.1094 37.9491C74.6508 37.9491 79.0696 32.5773 79.0696 26.1658ZM69.539 26.1658C69.539 28.5484 67.9361 30.3246 65.3369 30.3246C62.9109 30.3246 61.1781 28.5484 61.1781 26.1658C61.1781 23.7398 63.0842 22.007 65.3369 22.007C67.6762 22.007 69.539 23.7398 69.539 26.1658Z" fill="white"/>
<path d="M80.271 26.1658C80.271 32.5773 84.6898 37.9491 91.2312 37.9491C93.9171 37.9491 96.2564 36.866 97.9893 35.5231V37.2559H107V15.0757H97.9893V16.5052C96.1698 15.119 93.9171 14.3825 91.2312 14.3825C84.6898 14.3825 80.271 19.7543 80.271 26.1658ZM89.8016 26.1658C89.8016 23.7398 91.6644 22.007 94.0037 22.007C96.2564 22.007 98.1626 23.7398 98.1626 26.1658C98.1626 28.5484 96.4297 30.3246 94.0037 30.3246C91.4045 30.3246 89.8016 28.5484 89.8016 26.1658Z" fill="white"/>
<path fill-rule="evenodd" clip-rule="evenodd" d="M0 37.3231L12.8891 5.67578C13.8969 3.2013 16.3027 1.58344 18.9745 1.58344C21.6464 1.58344 24.0522 3.2013 25.06 5.67578L37.9491 37.3231H27.682L18.9745 14.5364L10.267 37.3231H0Z" fill="white"/>
</svg>
