<svg width="79" height="36" viewBox="0 0 79 36" fill="none" xmlns="http://www.w3.org/2000/svg">
<path d="M28.8016 0V27.3833H35.4246V0H28.8016Z" fill="white"/>
<path d="M58.1165 19.232C58.1165 14.5195 54.8687 10.5712 50.0607 10.5712C48.0866 10.5712 46.4309 11.1125 45.0935 12.1314V11.0807H38.4706V35.6619H45.0935V26.1096C46.3672 27.0967 48.0866 27.8927 50.0607 27.8927C54.8687 27.8927 58.1165 23.9445 58.1165 19.232ZM51.1115 19.232C51.1115 20.9832 49.9334 22.2887 48.0229 22.2887C46.2398 22.2887 44.9662 20.9832 44.9662 19.232C44.9662 17.4489 46.3672 16.1752 48.0229 16.1752C49.7423 16.1752 51.1115 17.4489 51.1115 19.232Z" fill="white"/>
<path d="M58.9996 19.232C58.9996 23.9445 62.2474 27.8927 67.0554 27.8927C69.0295 27.8927 70.7489 27.0967 72.0226 26.1096V27.3833H78.6455V11.0807H72.0226V12.1314C70.6853 11.1125 69.0295 10.5712 67.0554 10.5712C62.2474 10.5712 58.9996 14.5195 58.9996 19.232ZM66.0046 19.232C66.0046 17.4489 67.3738 16.1752 69.0932 16.1752C70.7489 16.1752 72.1499 17.4489 72.1499 19.232C72.1499 20.9832 70.8763 22.2887 69.0932 22.2887C67.1827 22.2887 66.0046 20.9832 66.0046 19.232Z" fill="white"/>
<path fill-rule="evenodd" clip-rule="evenodd" d="M0 27.4327L9.47355 4.17173C10.2143 2.35297 11.9826 1.16384 13.9464 1.16384C15.9102 1.16384 17.6785 2.35297 18.4192 4.17173L27.8927 27.4327H20.3464L13.9464 10.6843L7.54632 27.4327H0Z" fill="white"/>
</svg>
