<svg width="29" height="23" viewBox="0 0 29 23" fill="none" xmlns="http://www.w3.org/2000/svg">
<path d="M0 20.3125C0 19.1043 0.979475 18.1248 2.18772 18.1248H26.8123C28.0205 18.1248 29 19.1043 29 20.3125C29 21.5208 28.0205 22.5002 26.8123 22.5002H2.18772C0.979476 22.5002 0 21.5208 0 20.3125Z" fill="black"/>
<path d="M0 20.3125C0 19.1043 0.979475 18.1248 2.18772 18.1248H26.8123C28.0205 18.1248 29 19.1043 29 20.3125C29 21.5208 28.0205 22.5002 26.8123 22.5002H2.18772C0.979476 22.5002 0 21.5208 0 20.3125Z" fill="black"/>
<path d="M0 20.3125C0 19.1043 0.979475 18.1248 2.18772 18.1248H26.8123C28.0205 18.1248 29 19.1043 29 20.3125C29 21.5208 28.0205 22.5002 26.8123 22.5002H2.18772C0.979476 22.5002 0 21.5208 0 20.3125Z" fill="black"/>
<path d="M0 11.4599C0 10.2516 0.979475 9.27217 2.18772 9.27217H26.8123C28.0205 9.27217 29 10.2516 29 11.4599C29 12.6681 28.0205 13.6476 26.8123 13.6476H2.18772C0.979476 13.6476 0 12.6681 0 11.4599Z" fill="black"/>
<path d="M0 11.4599C0 10.2516 0.979475 9.27217 2.18772 9.27217H26.8123C28.0205 9.27217 29 10.2516 29 11.4599C29 12.6681 28.0205 13.6476 26.8123 13.6476H2.18772C0.979476 13.6476 0 12.6681 0 11.4599Z" fill="black"/>
<path d="M0 11.4599C0 10.2516 0.979475 9.27217 2.18772 9.27217H26.8123C28.0205 9.27217 29 10.2516 29 11.4599C29 12.6681 28.0205 13.6476 26.8123 13.6476H2.18772C0.979476 13.6476 0 12.6681 0 11.4599Z" fill="black"/>
<path d="M0 2.81077C0 1.60252 0.979475 0.623047 2.18772 0.623047H26.8123C28.0205 0.623047 29 1.60252 29 2.81077C29 4.01901 28.0205 4.99848 26.8123 4.99848H2.18772C0.979476 4.99848 0 4.01901 0 2.81077Z" fill="black"/>
<path d="M0 2.81077C0 1.60252 0.979475 0.623047 2.18772 0.623047H26.8123C28.0205 0.623047 29 1.60252 29 2.81077C29 4.01901 28.0205 4.99848 26.8123 4.99848H2.18772C0.979476 4.99848 0 4.01901 0 2.81077Z" fill="black"/>
<path d="M0 2.81077C0 1.60252 0.979475 0.623047 2.18772 0.623047H26.8123C28.0205 0.623047 29 1.60252 29 2.81077C29 4.01901 28.0205 4.99848 26.8123 4.99848H2.18772C0.979476 4.99848 0 4.01901 0 2.81077Z" fill="black"/>
</svg>
