<svg width="29" height="22" viewBox="0 0 29 22" fill="none" xmlns="http://www.w3.org/2000/svg">
<path d="M0 19.6895C0 18.4812 0.979475 17.5018 2.18772 17.5018H26.8123C28.0205 17.5018 29 18.4812 29 19.6895C29 20.8977 28.0205 21.8772 26.8123 21.8772H2.18772C0.979476 21.8772 0 20.8977 0 19.6895Z" fill="white"/>
<path d="M0 19.6895C0 18.4812 0.979475 17.5018 2.18772 17.5018H26.8123C28.0205 17.5018 29 18.4812 29 19.6895C29 20.8977 28.0205 21.8772 26.8123 21.8772H2.18772C0.979476 21.8772 0 20.8977 0 19.6895Z" fill="white"/>
<path d="M0 19.6895C0 18.4812 0.979475 17.5018 2.18772 17.5018H26.8123C28.0205 17.5018 29 18.4812 29 19.6895C29 20.8977 28.0205 21.8772 26.8123 21.8772H2.18772C0.979476 21.8772 0 20.8977 0 19.6895Z" fill="white"/>
<path d="M0 10.8368C0 9.6286 0.979475 8.64912 2.18772 8.64912H26.8123C28.0205 8.64912 29 9.6286 29 10.8368C29 12.0451 28.0205 13.0246 26.8123 13.0246H2.18772C0.979476 13.0246 0 12.0451 0 10.8368Z" fill="white"/>
<path d="M0 10.8368C0 9.6286 0.979475 8.64912 2.18772 8.64912H26.8123C28.0205 8.64912 29 9.6286 29 10.8368C29 12.0451 28.0205 13.0246 26.8123 13.0246H2.18772C0.979476 13.0246 0 12.0451 0 10.8368Z" fill="white"/>
<path d="M0 10.8368C0 9.6286 0.979475 8.64912 2.18772 8.64912H26.8123C28.0205 8.64912 29 9.6286 29 10.8368C29 12.0451 28.0205 13.0246 26.8123 13.0246H2.18772C0.979476 13.0246 0 12.0451 0 10.8368Z" fill="white"/>
<path d="M0 2.18772C0 0.979475 0.979475 0 2.18772 0H26.8123C28.0205 0 29 0.979475 29 2.18772C29 3.39596 28.0205 4.37544 26.8123 4.37544H2.18772C0.979476 4.37544 0 3.39596 0 2.18772Z" fill="white"/>
<path d="M0 2.18772C0 0.979475 0.979475 0 2.18772 0H26.8123C28.0205 0 29 0.979475 29 2.18772C29 3.39596 28.0205 4.37544 26.8123 4.37544H2.18772C0.979476 4.37544 0 3.39596 0 2.18772Z" fill="white"/>
<path d="M0 2.18772C0 0.979475 0.979475 0 2.18772 0H26.8123C28.0205 0 29 0.979475 29 2.18772C29 3.39596 28.0205 4.37544 26.8123 4.37544H2.18772C0.979476 4.37544 0 3.39596 0 2.18772Z" fill="white"/>
</svg>
