<svg width="25" height="32" viewBox="0 0 25 32" fill="none" xmlns="http://www.w3.org/2000/svg">
<path d="M21.7576 3.25951C19.5682 1.15764 16.5382 0 13.2258 0C8.16613 0 5.05417 2.07404 3.33456 3.81385C1.21523 5.95797 0 8.80496 0 11.6249C0 15.1656 1.481 17.8832 3.96109 18.8942C4.12758 18.9625 4.29513 18.9968 4.45939 18.9968C4.9826 18.9968 5.39716 18.6544 5.5408 18.1053C5.62454 17.7903 5.8185 17.013 5.90286 16.6756C6.0834 16.0093 5.93753 15.6888 5.54378 15.2248C4.82649 14.3761 4.49244 13.3724 4.49244 12.0663C4.49244 8.18651 7.38137 4.06316 12.7357 4.06316C16.9842 4.06316 19.6233 6.47783 19.6233 10.3647C19.6233 12.8176 19.095 15.0891 18.1353 16.7612C17.4685 17.923 16.2959 19.308 14.4957 19.308C13.7173 19.308 13.018 18.9882 12.5768 18.4307C12.16 17.9037 12.0226 17.223 12.1903 16.5134C12.3796 15.7118 12.6379 14.8756 12.8878 14.0672C13.3436 12.5907 13.7745 11.1962 13.7745 10.0836C13.7745 8.18061 12.6046 6.90189 10.8635 6.90189C8.6509 6.90189 6.91742 9.1492 6.91742 12.0181C6.91742 13.4251 7.29135 14.4775 7.46064 14.8816C7.18189 16.0626 5.52527 23.0839 5.21104 24.4079C5.02932 25.1808 3.93481 31.2855 5.74643 31.7722C7.78189 32.3191 9.60134 26.3736 9.78654 25.7018C9.93663 25.1554 10.4618 23.0893 10.7836 21.8193C11.7662 22.7658 13.3483 23.4057 14.8878 23.4057C17.79 23.4057 20.4 22.0997 22.2371 19.7286C24.0187 17.4287 25 14.2232 25 10.7029C24.9999 7.95093 23.818 5.23781 21.7576 3.25951Z" fill="white"/>
</svg>
