<svg width="60" height="255" viewBox="0 0 60 255" fill="none" xmlns="http://www.w3.org/2000/svg">
<path d="M17.3768 125.333H37.1768V114.773H34.5608V122.357H28.5608V115.061H25.9448V122.357H19.9928V114.773H17.3768V125.333ZM24.8888 112.776L30.7928 108.288L37.1768 113.496V110.112L32.6888 106.512L37.1768 102.912V99.5281L30.7928 104.736L24.8888 100.248V103.512L28.8248 106.512L24.8888 109.512L24.8888 112.776ZM31.0328 84.0233C27.3368 84.0233 24.5048 86.6153 24.5048 90.1673C24.5048 92.1353 25.3928 93.7673 26.8568 94.7753H24.8888V97.6073H43.4168V94.7753H35.1368C36.5768 93.8153 37.5608 92.1353 37.5608 90.1673C37.5608 86.6153 34.7288 84.0233 31.0328 84.0233ZM31.0328 86.9753C33.4328 86.9753 35.1368 88.6073 35.1368 90.9353C35.1368 93.2153 33.4328 94.8713 31.0328 94.8713C28.6088 94.8713 26.9288 93.1673 26.9288 90.9353C26.9288 88.6793 28.6088 86.9753 31.0328 86.9753ZM16.5368 81.037H37.1768V78.205H16.5368V81.037ZM31.0328 75.2933C34.8728 75.2933 37.5608 72.2213 37.5608 68.2373C37.5608 64.2533 34.8728 61.1813 31.0328 61.1813C27.1928 61.1813 24.5048 64.2533 24.5048 68.2373C24.5048 72.2213 27.1928 75.2933 31.0328 75.2933ZM31.0328 72.3653C28.6328 72.3653 26.9288 70.5893 26.9288 68.2373C26.9288 65.8853 28.6328 64.1093 31.0328 64.1093C33.4328 64.1093 35.1368 65.8853 35.1368 68.2373C35.1368 70.5893 33.4328 72.3653 31.0328 72.3653ZM24.8888 58.3261H37.1768V55.4941H29.7608C29.1368 55.4941 26.9528 54.8221 26.9528 52.5901C26.9528 51.6541 27.1928 50.9581 27.4808 50.5981L25.0808 49.4461C24.7928 49.8781 24.5048 50.7901 24.5048 51.8221C24.5048 53.8141 26.0168 55.1821 26.6888 55.4941H24.8888V58.3261ZM31.0088 48.7387C34.7048 48.7387 37.5608 45.7627 37.5608 42.0427C37.5608 39.4507 36.5768 37.2907 34.4648 35.9947L33.4088 38.0347C34.7288 39.0667 35.2808 40.1467 35.2808 41.8507C35.2808 43.8907 33.8888 45.8347 31.3688 45.8347V35.6827H30.9368C27.0248 35.6827 24.5048 38.5147 24.5048 42.1387C24.5048 45.7627 27.4088 48.7387 31.0088 48.7387ZM29.7368 45.7387C27.8408 45.5947 26.6408 44.1307 26.6408 42.0667C26.6408 40.1467 27.7448 38.6587 29.7368 38.4187V45.7387Z" fill="#212121"/>
<path d="M32.9999 186.977C32.9872 185.32 31.6337 183.987 29.9769 184C28.3201 184.013 26.9873 185.366 27.0001 187.023L32.9999 186.977ZM28.3951 254.138C29.5756 255.3 31.475 255.285 32.6376 254.105L51.582 234.867C52.7446 233.686 52.73 231.787 51.5494 230.624C50.3689 229.462 48.4694 229.476 47.3069 230.657L30.4674 247.757L13.3668 230.918C12.1862 229.755 10.2868 229.77 9.12425 230.951C7.96172 232.131 7.97633 234.031 9.15688 235.193L28.3951 254.138ZM27.0001 187.023L27.5001 252.023L33.4999 251.977L32.9999 186.977L27.0001 187.023Z" fill="black"/>
<rect x="2" y="160" width="158" height="56" rx="28" transform="rotate(-90 2 160)" stroke="black" stroke-width="3"/>
</svg>
