<svg width="226" height="62" viewBox="0 0 226 62" fill="none" xmlns="http://www.w3.org/2000/svg">
<path d="M36.6672 18.4653V38.2653H47.2272V35.6493H39.6432V29.6493H46.9392V27.0333H39.6432V21.0813H47.2272V18.4653H36.6672ZM49.2239 25.9773L53.7119 31.8813L48.5039 38.2653H51.8879L55.4879 33.7773L59.0879 38.2653H62.4719L57.2639 31.8813L61.7519 25.9773H58.4879L55.4879 29.9133L52.4879 25.9773H49.2239ZM77.9767 32.1213C77.9767 28.4253 75.3847 25.5933 71.8327 25.5933C69.8647 25.5933 68.2327 26.4813 67.2247 27.9453V25.9773H64.3927V44.5053H67.2247V36.2253C68.1847 37.6653 69.8647 38.6493 71.8327 38.6493C75.3847 38.6493 77.9767 35.8173 77.9767 32.1213ZM75.0247 32.1213C75.0247 34.5213 73.3927 36.2253 71.0647 36.2253C68.7847 36.2253 67.1287 34.5213 67.1287 32.1213C67.1287 29.6973 68.8327 28.0173 71.0647 28.0173C73.3207 28.0173 75.0247 29.6973 75.0247 32.1213ZM80.963 17.6253V38.2653H83.795V17.6253H80.963ZM86.7067 32.1213C86.7067 35.9613 89.7787 38.6493 93.7627 38.6493C97.7467 38.6493 100.819 35.9613 100.819 32.1213C100.819 28.2813 97.7467 25.5933 93.7627 25.5933C89.7787 25.5933 86.7067 28.2813 86.7067 32.1213ZM89.6347 32.1213C89.6347 29.7213 91.4107 28.0173 93.7627 28.0173C96.1147 28.0173 97.8907 29.7213 97.8907 32.1213C97.8907 34.5213 96.1147 36.2253 93.7627 36.2253C91.4107 36.2253 89.6347 34.5213 89.6347 32.1213ZM103.674 25.9773V38.2653H106.506V30.8493C106.506 30.2253 107.178 28.0413 109.41 28.0413C110.346 28.0413 111.042 28.2813 111.402 28.5693L112.554 26.1693C112.122 25.8813 111.21 25.5933 110.178 25.5933C108.186 25.5933 106.818 27.1053 106.506 27.7773V25.9773H103.674ZM113.261 32.0973C113.261 35.7933 116.237 38.6493 119.957 38.6493C122.549 38.6493 124.709 37.6653 126.005 35.5533L123.965 34.4973C122.933 35.8173 121.853 36.3693 120.149 36.3693C118.109 36.3693 116.165 34.9773 116.165 32.4573H126.317V32.0253C126.317 28.1133 123.485 25.5933 119.861 25.5933C116.237 25.5933 113.261 28.4973 113.261 32.0973ZM116.261 30.8253C116.405 28.9293 117.869 27.7293 119.933 27.7293C121.853 27.7293 123.341 28.8333 123.581 30.8253H116.261Z" fill="#212121"/>
<path d="M206 3C206 1.34315 204.657 0 203 0C201.343 0 200 1.34315 200 3H206ZM200.879 61.1213C202.05 62.2929 203.95 62.2929 205.121 61.1213L224.213 42.0294C225.385 40.8579 225.385 38.9584 224.213 37.7868C223.042 36.6152 221.142 36.6152 219.971 37.7868L203 54.7574L186.029 37.7868C184.858 36.6152 182.958 36.6152 181.787 37.7868C180.615 38.9584 180.615 40.8579 181.787 42.0294L200.879 61.1213ZM200 3V59H206V3H200Z" fill="black"/>
<rect x="2" y="3.0885" width="158" height="56" rx="28" stroke="black" stroke-width="3"/>
</svg>
