<svg width="28" height="29" viewBox="0 0 28 29" fill="none" xmlns="http://www.w3.org/2000/svg">
<path d="M18.7557 11.4381L16.7914 13.4013V13.4018C15.8708 16.4898 13.0047 18.7478 9.62137 18.7478C7.63914 18.7478 5.84402 17.9758 4.50936 16.7228L9.6504 11.5818L12.3738 14.3052C12.6969 14.6283 13.221 14.6285 13.5443 14.3054L21.2378 6.61711L22.3028 7.68216C22.8231 8.20257 23.7154 7.83294 23.7161 7.09756L23.7216 1.30514C23.7218 1.08519 23.6345 0.87414 23.4789 0.718718C23.2135 0.453464 22.8986 0.477694 22.8924 0.476424L17.1041 0.486083C16.3685 0.487242 16.0004 1.37959 16.5201 1.89934L17.5701 2.94937L12.9336 7.58585L10.1677 4.81989C9.84463 4.49679 9.32019 4.49657 8.99693 4.81989L2.15226 11.6645C1.83833 5.70595 8.29417 1.83752 13.3772 4.80074L14.5826 3.59534C8.69608 -0.219053 0.709151 3.83333 0.490369 10.985C0.33826 16.1654 4.49986 20.4035 9.62137 20.4035C14.6019 20.4035 18.6652 16.3971 18.7557 11.4381Z" fill="white"/>
<path d="M26.8629 24.9799L18.8076 16.9246C17.9263 18.3504 16.7227 19.5566 15.2991 20.4409L23.3504 28.4922C23.6737 28.8155 24.1979 28.8156 24.5212 28.4922L26.8629 26.1506C27.186 25.8276 27.1861 25.3031 26.8629 24.9799Z" fill="white"/>
</svg>
