<svg width="28" height="28" viewBox="0 0 28 28" fill="none" xmlns="http://www.w3.org/2000/svg">
<path d="M9.89654 23.9339V25.5456H7.55699C7.12594 25.5456 6.77714 25.8944 6.77714 26.3254C6.77714 26.7565 7.12594 27.1053 7.55699 27.1053H20.0346C20.4657 27.1053 20.8145 26.7565 20.8145 26.3254C20.8145 25.8944 20.4657 25.5456 20.0346 25.5456H17.6951V23.9339H9.89654Z" fill="white"/>
<path d="M1.26618 22.3742H26.3254C26.7565 22.3742 27.1053 22.0254 27.1053 21.5943V4.43758C27.1053 4.00653 26.7565 3.65773 26.3254 3.65773H24.7137V16.9152C24.7137 18.2053 23.6643 19.2548 22.3742 19.2548H5.21743C3.92735 19.2548 2.87787 18.2053 2.87787 16.9152V3.65773H1.26618C0.83513 3.65773 0.486328 4.00653 0.486328 4.43758V21.5943C0.486328 22.0254 0.83513 22.3742 1.26618 22.3742Z" fill="white"/>
<path d="M18.5907 12.5773L16.5892 11.9094L17.2564 13.9116L18.5907 12.5773Z" fill="white"/>
<path d="M23.154 1.26618C23.154 0.83513 22.8052 0.486328 22.3742 0.486328H5.21743C4.78638 0.486328 4.43758 0.83513 4.43758 1.26618V6.77714H23.154V1.26618ZM7.55699 4.43758C7.1263 4.43758 6.77714 4.08841 6.77714 3.65773C6.77714 3.22694 7.1263 2.87787 7.55699 2.87787C7.98767 2.87787 8.33684 3.22694 8.33684 3.65773C8.33684 4.08841 7.98767 4.43758 7.55699 4.43758ZM10.6764 4.43758C10.2457 4.43758 9.89654 4.08841 9.89654 3.65773C9.89654 3.22694 10.2457 2.87787 10.6764 2.87787C11.1071 2.87787 11.4562 3.22694 11.4562 3.65773C11.4562 4.08841 11.1071 4.43758 10.6764 4.43758ZM13.7958 4.43758C13.3651 4.43758 13.016 4.08841 13.016 3.65773C13.016 3.22694 13.3651 2.87787 13.7958 2.87787C14.2265 2.87787 14.5757 3.22694 14.5757 3.65773C14.5757 4.08841 14.2265 4.43758 13.7958 4.43758Z" fill="white"/>
<path d="M4.43758 16.9152C4.43758 17.3463 4.78638 17.6951 5.21743 17.6951H22.3742C22.8052 17.6951 23.154 17.3463 23.154 16.9152V8.33684H4.43758V16.9152ZM14.8042 10.125C15.0143 9.91791 15.3235 9.84247 15.6023 9.93694L20.2814 11.4966C20.5373 11.582 20.7323 11.7937 20.7932 12.0572C20.8556 12.3199 20.778 12.5963 20.5861 12.7875L19.5777 13.7958L20.586 14.8042C20.8906 15.1088 20.8906 15.6023 20.586 15.9069C20.2814 16.2115 19.7879 16.2115 19.4833 15.9069L18.4749 14.8986L17.4666 15.9069C17.2786 16.0949 17.0047 16.1769 16.7355 16.1148C16.4735 16.0524 16.2602 15.8589 16.175 15.6023L14.6153 10.9232C14.5224 10.6429 14.5955 10.3337 14.8042 10.125ZM7.55699 9.89654H12.2361C12.6672 9.89654 13.016 10.2453 13.016 10.6764C13.016 11.1074 12.6672 11.4562 12.2361 11.4562H7.55699C7.12594 11.4562 6.77714 11.1074 6.77714 10.6764C6.77714 10.2453 7.12594 9.89654 7.55699 9.89654ZM7.55699 13.016H12.2361C12.6672 13.016 13.016 13.3648 13.016 13.7958C13.016 14.2269 12.6672 14.5757 12.2361 14.5757H7.55699C7.12594 14.5757 6.77714 14.2269 6.77714 13.7958C6.77714 13.3648 7.12594 13.016 7.55699 13.016Z" fill="white"/>
</svg>
