<svg width="37" height="40" viewBox="0 0 37 40" fill="none" xmlns="http://www.w3.org/2000/svg">
<path d="M24.2135 20.2176C24.042 21.6186 23.4119 22.954 22.374 23.9919C21.1125 25.2543 19.3491 25.8485 17.1346 25.7591C15.5815 25.6972 14.8642 26.1035 14.7464 26.1773C14.2707 26.5941 13.6667 26.8223 13.0292 26.8223C12.3321 26.8223 11.6767 26.5509 11.1838 26.058C10.3331 25.2073 10.1959 23.895 10.7767 22.8951L11.1935 22.2345C11.3352 21.8893 11.5268 21.2078 11.4821 20.1065C11.3933 17.8913 11.9876 16.1287 13.2492 14.8671C14.2826 13.8344 15.6038 13.1947 17.0324 13.0239C17.2345 12.0524 17.6722 11.1435 18.3037 10.3799H3.3183C1.67198 10.3799 0.332106 11.7191 0.332106 13.3654V28.1726H31.484V13.4698L27.6985 18.109C26.8082 19.1969 25.572 19.9373 24.2135 20.2176Z" fill="white"/>
<path d="M0.332106 31.3639C0.332106 33.0094 1.67198 34.3486 3.3183 34.3486H11.8048V36.909H9.9238C9.30613 36.909 8.80538 37.4098 8.80538 38.0274C8.80538 38.6451 9.30613 39.1459 9.9238 39.1459H21.8919C22.5096 39.1459 23.0104 38.6451 23.0104 38.0274C23.0104 37.4098 22.5096 36.909 21.8919 36.909H20.0109V34.3486H28.4977C30.1441 34.3486 31.4839 33.0094 31.4839 31.3639V30.4095H0.332031V31.3639H0.332106Z" fill="white"/>
<path d="M12.7926 23.9231C12.7923 23.9232 12.7921 23.9234 12.792 23.9237C12.7918 23.9237 12.7917 23.9238 12.7917 23.924L12.7914 23.9243C12.7912 23.9243 12.7911 23.9245 12.791 23.9246C12.7909 23.9249 12.7909 23.9249 12.7906 23.925L12.7906 23.9251C12.7905 23.9252 12.7903 23.9253 12.7902 23.9255C12.7902 23.9255 12.7902 23.9255 12.7901 23.9255C12.79 23.9256 12.7899 23.9258 12.7898 23.9259C12.7898 23.9259 12.7898 23.9259 12.7897 23.926C12.7896 23.9261 12.7895 23.9262 12.7894 23.9263C12.7894 23.9263 12.7894 23.9263 12.7893 23.9264L12.7889 23.9268C12.6475 24.0727 12.649 24.3056 12.7931 24.4498C12.8659 24.5225 12.9613 24.5589 13.0567 24.5589C13.1513 24.5589 13.2458 24.5232 13.3184 24.4517C13.3412 24.4301 14.4706 23.386 17.2527 23.4978C18.818 23.5609 20.0182 23.186 20.8202 22.384C22.4638 20.7404 22.4638 18.0662 20.8202 16.4226C20.024 15.6265 18.9655 15.188 17.8395 15.188C16.7136 15.188 15.655 15.6264 14.8589 16.4226C14.0569 17.2246 13.6821 18.4249 13.745 19.9901C13.8574 22.7874 12.8016 23.9137 12.7931 23.9225C12.7928 23.9228 12.7927 23.9229 12.7926 23.9231Z" fill="white"/>
<path d="M24.1165 17.9181C24.8457 17.6996 25.5026 17.2672 25.9925 16.6684L27.4215 14.9171L22.3308 9.8264L20.5868 11.2508C19.9866 11.7399 19.5526 12.3961 19.3334 13.1253C20.4861 13.3959 21.5434 13.9827 22.4016 14.8409C23.2799 15.7193 23.8518 16.7892 24.1165 17.9181Z" fill="white"/>
<path d="M35.6012 1.64205C34.7684 0.809202 33.4516 0.742843 32.539 1.48846L24.072 8.40424L28.8429 13.1752L35.7556 4.70361C36.5004 3.79166 36.4341 2.4749 35.6012 1.64205Z" fill="white"/>
</svg>
