<svg width="26" height="26" viewBox="0 0 26 26" fill="none" xmlns="http://www.w3.org/2000/svg">
<path d="M24.6636 1.28722C23.5834 0.160421 21.6236 0.160471 20.5434 1.28722L19.9623 1.86827L18.2565 3.57413H4.06787C3.6553 3.57413 3.32082 3.90861 3.32082 4.32118V5.22017H0.762184C0.349615 5.22017 0.0151367 5.55465 0.0151367 5.96722V21.9515C0.0151367 22.3641 0.349615 22.6985 0.762184 22.6985H8.08793C7.76824 23.7079 6.82283 24.4417 5.70908 24.4417H5.63109C4.63991 24.4811 4.64065 25.8967 5.63109 25.9357H17.2701C18.2613 25.8963 18.2605 24.4807 17.2701 24.4417H17.1921C16.0783 24.4417 15.1329 23.708 14.8132 22.6985H22.139C22.5516 22.6985 22.886 22.3641 22.886 21.9515V7.18511L24.6636 5.40748C25.7905 4.32725 25.7904 2.3674 24.6636 1.28722ZM21.5998 2.34369C22.1239 1.79655 23.083 1.79655 23.6071 2.34369C24.1543 2.86782 24.1543 3.82693 23.6071 4.35101L23.5543 4.4038L21.547 2.39648L21.5998 2.34369ZM16.6872 11.271L14.6799 9.26364L20.4906 3.45296L22.4979 5.46027L16.6872 11.271ZM15.317 12.0137L13.1997 12.7512L13.9372 10.6339L15.317 12.0137ZM4.81492 5.06817H16.7624L13.0952 8.73538C13.0161 8.81452 12.9547 8.91213 12.918 9.01786L11.2805 13.7192C11.1862 13.9899 11.2551 14.2906 11.4577 14.4932C11.6608 14.6969 11.964 14.7643 12.2317 14.6705L16.9331 13.0329C17.0177 13.0034 17.097 12.9584 17.1657 12.9008C17.1825 12.8868 17.1987 12.8723 17.2142 12.8569L18.0863 11.9849V18.2162H4.81492V5.06817ZM3.32082 6.71422V18.2162H1.50923V6.71422H3.32082ZM14.0829 24.4415H8.81939C9.21921 23.9442 9.50149 23.349 9.6261 22.6984H13.2752C13.3998 23.3492 13.6829 23.9441 14.0829 24.4415ZM21.3919 21.2044H1.50923V19.7103H21.3919V21.2044ZM21.3919 18.2162H19.5803V10.4908L21.3919 8.67925V18.2162Z" fill="white"/>
<path d="M11.9181 7.30936C11.9181 6.89679 11.5836 6.56232 11.171 6.56232H7.03738C6.0462 6.60181 6.04695 8.01732 7.03738 8.05641H11.171C11.5837 8.05641 11.9181 7.72193 11.9181 7.30936Z" fill="white"/>
<path d="M9.63656 9.55051H7.03738C6.0462 9.59 6.04695 11.0055 7.03738 11.0446H9.63656C10.6277 11.0051 10.627 9.5896 9.63656 9.55051Z" fill="white"/>
<path d="M9.01237 12.5387H7.03738C6.0462 12.5782 6.04695 13.9937 7.03738 14.0328H9.01237C10.0036 13.9933 10.0028 12.5778 9.01237 12.5387Z" fill="white"/>
</svg>
