<svg width="22" height="24" viewBox="0 0 22 24" fill="none" xmlns="http://www.w3.org/2000/svg">
<path d="M15.2727 9.59986L13.6939 11.1778V11.1782C12.954 13.6602 10.6504 15.4749 7.93107 15.4749C6.33788 15.4749 4.89506 14.8545 3.82234 13.8474L7.95441 9.71533L10.1433 11.9042C10.403 12.164 10.8242 12.1641 11.0841 11.9044L17.2677 5.72504L18.1236 6.58106C18.5419 6.99933 19.259 6.70225 19.2596 6.11119L19.264 1.45558C19.2642 1.27881 19.194 1.10917 19.069 0.984255C18.8556 0.77106 18.6025 0.790534 18.5975 0.789514L13.9453 0.797277C13.354 0.798208 13.0581 1.51543 13.4758 1.93317L14.3198 2.77712L10.5933 6.50365L8.3702 4.28053C8.11051 4.02085 7.689 4.02067 7.42918 4.28053L1.92785 9.78183C1.67553 4.99269 6.86434 1.88348 10.9498 4.26514L11.9186 3.29631C7.18738 0.23053 0.767959 3.48759 0.592115 9.23566C0.469859 13.3994 3.81471 16.8057 7.93107 16.8057C11.9341 16.8057 15.1999 13.5856 15.2727 9.59986Z" fill="white"/>
<path d="M21.7888 20.484L15.3144 14.0096C14.6061 15.1555 13.6387 16.125 12.4945 16.8358L18.9657 23.307C19.2255 23.5668 19.6468 23.5669 19.9067 23.307L21.7888 21.4249C22.0485 21.1653 22.0486 20.7437 21.7888 20.484Z" fill="white"/>
</svg>
