<svg width="26" height="26" viewBox="0 0 26 26" fill="none" xmlns="http://www.w3.org/2000/svg">
<path d="M14.76 25.8999H11.2394C10.3799 25.8999 9.64846 25.3125 9.46005 24.472L9.01336 22.4894C8.28617 22.1814 7.59391 21.7792 6.94505 21.2891L5.01645 21.8977C4.1887 22.1528 3.28897 21.8025 2.87404 21.0636L1.11904 18.0278C0.698817 17.2763 0.840656 16.3501 1.45988 15.7679L2.95449 14.394C2.90897 13.9918 2.88568 13.5906 2.88568 13.1979C2.88568 12.8052 2.90791 12.404 2.95343 12.0018L1.46623 10.6342C0.840656 10.0457 0.697758 9.12054 1.11375 8.37853L2.87933 5.32474C3.29003 4.59438 4.1887 4.24083 5.01434 4.49805L6.94505 5.10669C7.59391 4.6166 8.28723 4.21437 9.01336 3.90635L9.46005 1.92271C9.64846 1.08332 10.3799 0.49585 11.2394 0.49585H14.76C15.6195 0.49585 16.3509 1.08332 16.5393 1.92377L16.986 3.90635C17.7132 4.21437 18.4055 4.6166 19.0543 5.10669L20.9829 4.49805C21.8086 4.23978 22.7093 4.59332 23.1253 5.33215L24.8803 8.36794C25.3006 9.11948 25.1587 10.0457 24.5395 10.6278L23.0449 12.0018C23.0904 12.404 23.1126 12.8052 23.1126 13.1979C23.1126 13.5906 23.0904 13.9918 23.0449 14.394L24.5331 15.7616C24.5353 15.7637 24.5374 15.7658 24.5395 15.7679C25.1587 16.3501 25.3016 17.2752 24.8856 18.0173L23.12 21.071C22.7083 21.8014 21.8096 22.1549 20.985 21.8977L19.0533 21.288C18.4044 21.7781 17.7111 22.1804 16.985 22.4884L16.5383 24.472C16.3509 25.3125 15.6195 25.8999 14.76 25.8999ZM7.10806 19.6114C7.29012 19.6114 7.46901 19.6738 7.61402 19.7924C8.3391 20.3904 9.13297 20.8509 9.97237 21.161C10.2243 21.2542 10.4127 21.469 10.472 21.7315L11.0108 24.1238C11.0351 24.2328 11.1325 24.3122 11.2415 24.3122H14.7621C14.8711 24.3122 14.9674 24.2328 14.9928 24.1248L15.5316 21.7326C15.5909 21.4701 15.7783 21.2552 16.0312 21.1621C16.8706 20.8519 17.6645 20.3904 18.3896 19.7934C18.5971 19.622 18.8754 19.5669 19.1337 19.6484L21.4635 20.3841C21.5736 20.4179 21.6921 20.3798 21.744 20.2856L23.5096 17.2329C23.5625 17.1387 23.5434 17.0096 23.4577 16.927L21.6709 15.2842C21.4762 15.1053 21.3841 14.8428 21.4243 14.5814C21.4942 14.1156 21.5302 13.6499 21.5302 13.1979C21.5302 12.7459 21.4952 12.2812 21.4243 11.8144C21.3852 11.553 21.4772 11.2905 21.6709 11.1116L23.4619 9.46455C23.5424 9.38834 23.5635 9.25814 23.5043 9.15335L21.7493 6.11862C21.6921 6.01806 21.5778 5.9789 21.4614 6.01277L19.1348 6.74737C18.8765 6.82888 18.5981 6.77383 18.3906 6.60236C17.6656 6.0043 16.8717 5.54385 16.0323 5.23371C15.7804 5.14056 15.592 4.92569 15.5327 4.66318L14.9939 2.27096C14.9653 2.16299 14.869 2.0836 14.76 2.0836H11.2394C11.1304 2.0836 11.034 2.16299 11.0086 2.27096L10.4699 4.66424C10.4116 4.92675 10.2232 5.14056 9.97131 5.23477C9.13191 5.54491 8.33804 6.00536 7.61296 6.60342C7.4055 6.77489 7.12711 6.82888 6.86883 6.74843L4.53907 6.01277C4.42898 5.9789 4.31043 6.01806 4.25856 6.11121L2.49298 9.16288C2.439 9.25814 2.46017 9.38834 2.54696 9.4709L4.33266 11.1116C4.52742 11.2905 4.61951 11.553 4.57929 11.8144C4.50943 12.2802 4.47344 12.7459 4.47344 13.1979C4.47344 13.6499 4.50837 14.1146 4.57929 14.5814C4.61846 14.8428 4.52637 15.1053 4.33266 15.2842L2.54167 16.9312C2.46122 17.0074 2.44005 17.1376 2.49933 17.2424L4.25433 20.2772C4.31255 20.3788 4.42792 20.4201 4.54224 20.383L6.86883 19.6484C6.94716 19.623 7.02761 19.6114 7.10806 19.6114Z" fill="white"/>
<path d="M12.2069 17.4319C12.1465 17.4319 12.0873 17.4256 12.0269 17.4118C11.6003 17.3134 11.3336 16.8868 11.432 16.4602L13.0198 9.57993C13.1182 9.15123 13.5501 8.88767 13.9714 8.98399C14.398 9.08243 14.6647 9.50901 14.5663 9.93559L12.9785 16.8159C12.8938 17.1842 12.5678 17.4319 12.2069 17.4319Z" fill="white"/>
<path d="M16.4398 16.3734C16.2228 16.3734 16.0069 16.2855 15.8492 16.1109C15.556 15.7849 15.5824 15.2831 15.9085 14.9889L17.8995 13.1979L15.9085 11.4069C15.5824 11.1137 15.556 10.612 15.8492 10.2849C16.1434 9.95993 16.6452 9.93347 16.9712 10.2256L19.6175 12.6072C19.7847 12.7586 19.88 12.9735 19.88 13.1979C19.88 13.4223 19.7847 13.6372 19.6175 13.7885L16.9712 16.1702C16.8188 16.3067 16.6293 16.3734 16.4398 16.3734Z" fill="white"/>
<path d="M9.55955 16.3734C9.37008 16.3734 9.1806 16.3067 9.02818 16.1702L6.38192 13.7885C6.21468 13.6372 6.11941 13.4223 6.11941 13.1979C6.11941 12.9735 6.21468 12.7586 6.38192 12.6072L9.02818 10.2256C9.3542 9.93241 9.85487 9.95887 10.1502 10.2849C10.4434 10.6109 10.4169 11.1126 10.0909 11.4069L8.09987 13.1979L10.0909 14.9889C10.4169 15.2821 10.4434 15.7838 10.1502 16.1109C9.99248 16.2855 9.77654 16.3734 9.55955 16.3734Z" fill="white"/>
</svg>
