<svg width="28" height="28" viewBox="0 0 28 28" fill="none" xmlns="http://www.w3.org/2000/svg">
<path d="M12.2499 9.3333H9.91654C9.59454 9.3333 9.33319 9.59465 9.33319 9.91665V16.9166C9.33319 17.2386 9.59454 17.5 9.91654 17.5H12.2499C12.5719 17.5 12.8332 17.2386 12.8332 16.9166V9.91665C12.8332 9.59465 12.5719 9.3333 12.2499 9.3333Z" fill="white"/>
<path d="M7.5833 12.8333H5.24995C4.92795 12.8333 4.6666 13.0947 4.6666 13.4167V16.9167C4.6666 17.2387 4.92795 17.5 5.24995 17.5H7.5833C7.9053 17.5 8.16665 17.2387 8.16665 16.9167V13.4167C8.16659 13.0947 7.9053 12.8333 7.5833 12.8333Z" fill="white"/>
<path d="M16.9165 5.8333H14.5831C14.2611 5.8333 13.9998 6.09465 13.9998 6.41665V16.9166C13.9998 17.2386 14.2611 17.5 14.5831 17.5H16.9165C17.2385 17.5 17.4998 17.2386 17.4998 16.9166V6.41665C17.4998 6.09465 17.2385 5.8333 16.9165 5.8333Z" fill="white"/>
<path d="M27.6578 26.0085L20.6941 19.0446C22.3415 17.0333 23.3331 14.4643 23.3331 11.6666C23.3331 5.23365 18.0995 0 11.6666 0C5.23365 0 0 5.23365 0 11.6666C0 18.0996 5.23359 23.3333 11.6665 23.3333C14.4641 23.3333 17.0331 22.3417 19.0444 20.6943L26.0082 27.6582C26.2357 27.8857 26.5344 28 26.8331 28C27.1318 28 27.4304 27.8857 27.6579 27.6582C28.114 27.202 28.114 26.4647 27.6578 26.0085ZM11.6665 21C6.52043 21 2.33327 16.8129 2.33327 11.6666C2.33327 6.52045 6.52043 2.3333 11.6665 2.3333C16.8126 2.3333 20.9998 6.5205 20.9998 11.6666C20.9998 16.8128 16.8127 21 11.6665 21Z" fill="white"/>
</svg>
