<svg width="21" height="18" viewBox="0 0 21 18" fill="none" xmlns="http://www.w3.org/2000/svg">
<path d="M18.2304 3.03944H14.2951V2.38355C14.2951 1.8617 14.0878 1.36121 13.7188 0.992207C13.3498 0.6232 12.8493 0.415894 12.3274 0.415894H8.39211C7.87026 0.415894 7.36977 0.6232 7.00077 0.992207C6.63176 1.36121 6.42445 1.8617 6.42445 2.38355V3.03944H2.48914C1.96777 3.04099 1.46819 3.2488 1.09952 3.61747C0.730848 3.98614 0.523042 4.48572 0.521484 5.00709V6.97475C0.539593 7.76356 0.826525 8.52254 1.33478 9.12605C2.13738 10.0644 3.24089 10.695 4.4568 10.9101V9.03423C4.4568 8.51237 4.6641 8.01189 5.03311 7.64289C5.40212 7.27388 5.9026 7.06657 6.42445 7.06657C6.94631 7.06657 7.44679 7.27388 7.8158 7.64289C8.18481 8.01189 8.39211 8.51237 8.39211 9.03423V11.0019H12.3274V9.03423C12.3274 8.51237 12.5347 8.01189 12.9037 7.64289C13.2727 7.27388 13.7732 7.06657 14.2951 7.06657C14.8169 7.06657 15.3174 7.27388 15.6864 7.64289C16.0554 8.01189 16.2627 8.51237 16.2627 9.03423V10.9101C17.4635 10.6998 18.5548 10.0812 19.352 9.15885C19.8945 8.56055 20.1959 7.78238 20.1981 6.97475V5.00709C20.1965 4.48572 19.9887 3.98614 19.62 3.61747C19.2513 3.2488 18.7518 3.04099 18.2304 3.03944ZM7.73623 2.38355C7.73623 2.2096 7.80533 2.04277 7.92833 1.91977C8.05133 1.79677 8.21816 1.72766 8.39211 1.72766H12.3274C12.5014 1.72766 12.6682 1.79677 12.7912 1.91977C12.9142 2.04277 12.9833 2.2096 12.9833 2.38355V3.03944H7.73623V2.38355Z" fill="white"/>
<path d="M16.1644 12.2481C16.0421 12.6415 15.7989 12.9864 15.4693 13.2336C15.1397 13.4808 14.7406 13.6178 14.3286 13.6251C13.9167 13.6324 13.513 13.5095 13.1749 13.2741C12.8368 13.0386 12.5815 12.7025 12.4455 12.3137H8.27405C8.13801 12.7021 7.88312 13.0378 7.54555 13.2733C7.20798 13.5087 6.80484 13.6319 6.39333 13.6254C5.98181 13.6189 5.58279 13.4829 5.25286 13.2369C4.92293 12.9909 4.67883 12.6472 4.55518 12.2546C3.31362 12.0962 2.14241 11.589 1.17737 10.792V15.5013C1.17893 16.0226 1.38673 16.5222 1.7554 16.8909C2.12407 17.2596 2.62365 17.4674 3.14503 17.4689H17.5745C18.0959 17.4674 18.5955 17.2596 18.9641 16.8909C19.3328 16.5222 19.5406 16.0226 19.5422 15.5013V10.792C18.5809 11.5899 17.4108 12.0953 16.1709 12.2481H16.1644Z" fill="white"/>
<path d="M7.08034 11.6558V9.03226C7.08034 8.85831 7.01124 8.69148 6.88824 8.56848C6.76523 8.44548 6.59841 8.37638 6.42445 8.37638C6.2505 8.37638 6.08368 8.44548 5.96067 8.56848C5.83767 8.69148 5.76857 8.85831 5.76857 9.03226V11.6558C5.76857 11.8298 5.83767 11.9966 5.96067 12.1196C6.08368 12.2426 6.2505 12.3117 6.42445 12.3117C6.59841 12.3117 6.76523 12.2426 6.88824 12.1196C7.01124 11.9966 7.08034 11.8298 7.08034 11.6558Z" fill="white"/>
<path d="M14.951 11.6558V9.03226C14.951 8.85831 14.8819 8.69148 14.7589 8.56848C14.6359 8.44548 14.469 8.37638 14.2951 8.37638C14.1211 8.37638 13.9543 8.44548 13.8313 8.56848C13.7083 8.69148 13.6392 8.85831 13.6392 9.03226V11.6558C13.6392 11.8298 13.7083 11.9966 13.8313 12.1196C13.9543 12.2426 14.1211 12.3117 14.2951 12.3117C14.469 12.3117 14.6359 12.2426 14.7589 12.1196C14.8819 11.9966 14.951 11.8298 14.951 11.6558Z" fill="white"/>
</svg>
