<svg width="23" height="23" viewBox="0 0 23 23" fill="none" xmlns="http://www.w3.org/2000/svg">
<path d="M20.0602 7.53466L15.247 12.5197H12.1221C11.3678 12.5197 10.6584 12.8731 10.2004 13.4776C9.7245 14.0822 9.5449 14.8634 9.71552 15.6354L10.1735 17.7745L7.87467 20.1554L3.17826 15.2912L15.3817 2.67052C15.732 2.3078 16.2977 2.3078 16.6479 2.67052L20.0692 6.21399C20.4194 6.57671 20.4104 7.17194 20.0602 7.53466Z" fill="white"/>
<path d="M21.4727 1.21314C20.5056 0.198456 18.8102 0.204966 17.8521 1.20942L17.1687 1.91346C17.2073 1.94787 17.2495 1.97577 17.2854 2.01297L20.7013 5.56017C20.7346 5.59458 20.7579 5.63364 20.7876 5.66992L21.47 4.95936C21.9486 4.46272 22.2243 3.78099 22.2243 3.08904C22.2243 2.38127 21.9567 1.7135 21.4727 1.21314Z" fill="white"/>
<path d="M2.78225 16.1952L0.71691 21.8043C0.62352 22.061 0.682787 22.3512 0.870463 22.5456C0.998874 22.6795 1.17129 22.7502 1.34639 22.7502C1.42721 22.7502 1.50892 22.7353 1.58705 22.7046L7.00184 20.5665L2.78225 16.1952Z" fill="white"/>
<path d="M7.61156 8.31682C7.78397 8.31682 7.95639 8.24893 8.08749 8.11222L12.7507 3.28249C12.9806 3.04533 13.3281 3.02765 13.5894 3.20436L14.5511 2.20921C13.7762 1.51447 12.5289 1.53772 11.7979 2.29571L7.13474 7.12637C6.87163 7.39887 6.87163 7.84064 7.13474 8.11315C7.26674 8.24893 7.43825 8.31682 7.61156 8.31682Z" fill="white"/>
<path d="M15.0405 22.7502C14.4218 22.7502 13.918 22.2285 13.918 21.5877C13.918 20.9468 14.4209 20.4251 15.0405 20.4251C15.6601 20.4251 16.163 20.9468 16.163 21.5877C16.163 22.2285 15.6592 22.7502 15.0405 22.7502Z" fill="white"/>
<path d="M18.6324 22.7502C18.0137 22.7502 17.5099 22.2285 17.5099 21.5877C17.5099 20.9468 18.0128 20.4251 18.6324 20.4251C19.252 20.4251 19.7549 20.9468 19.7549 21.5877C19.7549 22.2285 19.2511 22.7502 18.6324 22.7502Z" fill="white"/>
<path d="M19.9794 19.9601C19.9291 19.9601 19.877 19.9545 19.8258 19.9415C19.4639 19.854 19.2385 19.4783 19.323 19.1035L20.8944 12.1282C20.9797 11.7533 21.3398 11.519 21.7035 11.6073C22.0654 11.6948 22.2908 12.0705 22.2064 12.4453L20.6349 19.4206C20.5622 19.7434 20.2856 19.9601 19.9794 19.9601Z" fill="white"/>
<path d="M19.9794 19.9601H13.0201C12.704 19.9601 12.431 19.7331 12.3628 19.4141L11.4648 15.2289C11.4208 15.0225 11.4684 14.8058 11.5968 14.6411C11.7243 14.4756 11.9174 14.3798 12.1221 14.3798H20.9222C21.1279 14.3798 21.3218 14.4765 21.4494 14.6439C21.5778 14.8104 21.6245 15.029 21.5778 15.2364L20.6349 19.4216C20.564 19.7369 20.2919 19.9601 19.9794 19.9601Z" fill="white"/>
</svg>
