<svg width="32" height="31" viewBox="0 0 32 31" fill="none" xmlns="http://www.w3.org/2000/svg">
<path d="M19.799 10.1389C19.799 8.72447 18.6525 7.57798 17.2381 7.57798H14.5766C13.1621 7.57798 12.0156 8.72447 12.0156 10.1389V27.978C12.0156 29.3925 13.1621 30.539 14.5766 30.539H17.2381C18.6525 30.539 19.799 29.3925 19.799 27.978V10.1389Z" fill="white"/>
<path d="M8.31854 16.3656C8.31854 14.8438 7.08487 13.6101 5.56303 13.6101H3.29067C1.76882 13.6101 0.535156 14.8438 0.535156 16.3656V27.7834C0.535156 29.3053 1.76882 30.539 3.29067 30.539H5.56303C7.08487 30.539 8.31854 29.3053 8.31854 27.7834V16.3656Z" fill="white"/>
<path d="M31.0849 3.32845C31.0849 1.91401 29.9384 0.767517 28.524 0.767517H25.8625C24.448 0.767517 23.3015 1.91401 23.3015 3.32845V27.978C23.3015 29.3925 24.448 30.539 25.8625 30.539H28.524C29.9384 30.539 31.0849 29.3925 31.0849 27.978V3.32845Z" fill="white"/>
</svg>
