<svg width="1980" height="936" viewBox="0 0 1980 936" fill="none" xmlns="http://www.w3.org/2000/svg">
<path d="M1413.47 743.926C1562.07 722.851 1715.02 674.885 1871.67 589.043C1908.48 568.554 1945.45 545.971 1980 521.905V105.342C1889.55 62.5904 1773.05 32.812 1651.52 26.8948C1506.2 19.743 1353.93 47.1411 1210.25 72.9915C1114.47 90.2256 1022.5 106.772 938.976 111.933C797.377 120.683 680.479 96.4319 547.068 68.7544C483.741 55.6166 416.693 41.7068 341.516 30.1883C233.885 13.3414 109.663 1.3059 0 0V643.459C0 718.218 283.233 744.926 454.724 761.097L454.726 761.098C523.19 767.554 573.844 772.33 581.557 777.814C664.809 794.418 762.522 784.99 864.81 775.121C901.113 771.618 937.992 768.06 975.005 765.59C1027.9 762.316 1081.25 761.307 1135.09 760.288H1135.09C1226.41 758.561 1319.15 756.806 1413.47 743.926Z" fill="#94C6F3" fill-opacity="0.79"/>
<path fill-rule="evenodd" clip-rule="evenodd" d="M0 807.824C73.4926 849.695 162.82 884.279 254.588 905.48C430.927 945.575 614.896 937.399 793.638 929.455H793.639C858.48 926.573 922.633 923.722 985.485 923.217C1058.85 922.835 1130.35 925.557 1200.37 928.223C1356.72 934.175 1505.65 939.845 1651.32 910.042C1773.66 885.011 1892.93 834.938 1980 770.177L1980 324.664C1940.06 298.385 1890.49 277.702 1836.75 264.565C1698.48 230.137 1518.57 248.031 1338.13 265.978C1257.85 273.963 1177.46 281.959 1100.59 285.36C1001.62 289.738 908.492 286.501 816.608 283.308C676.719 278.446 539.72 273.684 389.435 296.049C255.018 316.052 109.931 358.124 0 412.923V807.824Z" fill="#94C6F3" fill-opacity="0.79"/>
</svg>
