<svg width="20" height="21" viewBox="0 0 20 21" fill="none" xmlns="http://www.w3.org/2000/svg">
<path d="M10.0799 0.879639C4.72317 0.879639 0.364746 5.23806 0.364746 10.5948C0.364746 15.9515 4.72317 20.3099 10.0799 20.3099C15.4366 20.3099 19.795 15.9515 19.795 10.5948C19.795 5.23806 15.4366 0.879639 10.0799 0.879639ZM15.5097 8.03817L9.30073 14.1984C8.9355 14.5636 8.35113 14.588 7.96155 14.2227L4.67447 11.2279C4.28489 10.8626 4.26054 10.2539 4.60143 9.86432C4.96666 9.47474 5.57538 9.45039 5.96495 9.81562L8.57027 12.2018L14.1218 6.65029C14.5114 6.26071 15.1201 6.26071 15.5097 6.65029C15.8992 7.03987 15.8992 7.64859 15.5097 8.03817Z" fill="white"/>
</svg>
