<svg width="30" height="29" viewBox="0 0 30 29" fill="none" xmlns="http://www.w3.org/2000/svg">
<path d="M5.7986 15.9164C5.7986 15.2613 5.54331 14.6694 5.1358 14.2175C5.54331 13.7656 5.7986 13.1736 5.7986 12.5186C5.7986 11.1134 4.65547 9.97026 3.25026 9.97026H0.701929C0.701929 10.6224 0.701929 18.8899 0.701929 18.4647H3.25026C4.65547 18.4647 5.7986 17.3216 5.7986 15.9164ZM2.40082 11.6692H3.25026C3.71893 11.6692 4.09971 12.0499 4.09971 12.5186C4.09971 12.9873 3.71893 13.368 3.25026 13.368H2.40082V11.6692ZM2.40082 15.0669H3.25026C3.71893 15.0669 4.09971 15.4477 4.09971 15.9164C4.09971 16.385 3.71893 16.7658 3.25026 16.7658H2.40082V15.0669Z" fill="white"/>
<path d="M11.767 12.5186C11.767 11.1134 10.6239 9.97026 9.21869 9.97026H6.67035C6.67035 10.6224 6.67035 18.8899 6.67035 18.4647H8.36924V15.0669H8.69362L10.5376 18.755L12.0574 17.9952L10.4324 14.7453C11.2233 14.3123 11.767 13.4821 11.767 12.5186ZM8.36924 13.368V11.6692H9.21869C9.68735 11.6692 10.0681 12.0499 10.0681 12.5186C10.0681 12.9873 9.68735 13.368 9.21869 13.368H8.36924Z" fill="white"/>
<path d="M17.7131 18.4647C17.7131 17.8201 17.7131 12.231 17.7131 12.5186C17.7131 11.1134 16.57 9.97026 15.1648 9.97026C13.7596 9.97026 12.6165 11.1134 12.6165 12.5186C12.6165 13.8884 12.6165 18.6392 12.6165 18.4647H14.3154V15.0669H16.0142V18.4647H17.7131ZM14.3154 13.368V12.5186C14.3154 12.0499 14.6961 11.6692 15.1648 11.6692C15.6335 11.6692 16.0142 12.0499 16.0142 12.5186V13.368H14.3154Z" fill="white"/>
<path d="M27.148 9.97026H24.5087V18.4647H27.148C28.5532 18.4647 29.6963 17.3216 29.6963 15.9164V12.5186C29.6963 11.1133 28.5532 9.97026 27.148 9.97026ZM27.9974 15.9164C27.9974 16.385 27.6166 16.7658 27.148 16.7658H26.2076V11.6692H27.148C27.6166 11.6692 27.9974 12.0499 27.9974 12.5186V15.9164Z" fill="white"/>
<path d="M21.2967 18.4647H23.6592V9.97026H21.9604V14.1129L20.9251 9.97026H18.5626V18.4647H20.2615V14.322L21.2967 18.4647Z" fill="white"/>
<path d="M25.9538 6.57248C25.947 6.5218 25.9332 6.47265 25.9355 6.41987L25.9346 6.06151C25.9612 5.36718 25.6907 4.68366 25.1947 4.18923C24.6986 3.69151 24.0118 3.4211 23.3531 3.44681H22.9425C22.609 3.43854 22.2697 3.24521 22.1296 2.87276L21.9952 2.56497C21.7546 1.89635 21.2345 1.36465 20.6032 1.12324C19.9761 0.847849 19.2453 0.855325 18.5999 1.13649L18.2399 1.2916C17.9039 1.43844 17.5273 1.36375 17.2602 1.07924L17.0196 0.840318C16.0972 -0.188303 14.2009 -0.155118 13.3415 0.807133L13.0495 1.09912C12.8031 1.3629 12.4265 1.43759 12.0864 1.2899L11.7355 1.13978C11.0835 0.851927 10.3511 0.846943 9.7629 1.10744C9.09512 1.3646 8.57498 1.89635 8.3535 2.51599L8.18508 2.91087C8.05982 3.24515 7.72469 3.46584 7.36718 3.44675L7.00883 3.4476C6.29711 3.42603 5.63182 3.6923 5.13654 4.18753C4.63882 4.6836 4.36842 5.36712 4.39413 6.02912L4.39497 6.45968C4.39662 6.49484 4.36502 6.53516 4.36043 6.57248H0.701929V8.27137C1.2932 8.27137 30.6392 8.27137 29.6963 8.27137V6.57248H25.9538Z" fill="white"/>
<path d="M0.701929 20.1636V21.8625H4.37578C4.38263 21.9132 4.39639 21.9623 4.39413 22.0151L4.39497 22.3735C4.36842 23.0678 4.63888 23.7513 5.1349 24.2457C5.63097 24.7435 6.30288 24.999 6.97649 24.9882H7.38712C7.67746 24.9799 8.05903 25.1889 8.20003 25.5622L8.33442 25.87C8.57498 26.5386 9.09512 27.0703 9.72637 27.3117C10.3527 27.5871 11.0843 27.5805 11.7297 27.2985L12.0897 27.1434C12.4282 26.9965 12.8023 27.0712 13.0694 27.3557L13.31 27.5947C13.7712 28.109 14.4472 28.4034 15.1648 28.4034C15.8824 28.4034 16.5584 28.109 16.9881 27.6278L17.2801 27.3359C17.5273 27.0721 17.9047 26.9966 18.2432 27.1451L18.5941 27.2952C19.2436 27.5814 19.9761 27.5864 20.5667 27.3275C21.2345 27.0704 21.7546 26.5386 21.9761 25.919L22.1445 25.5241C22.2698 25.1898 22.58 24.9741 22.9624 24.9882L23.3208 24.9874C24.0441 25.0288 24.6986 24.7435 25.1931 24.2474C25.6908 23.7514 25.9612 23.0678 25.9355 22.4058L25.9346 21.9753C25.933 21.9401 25.9646 21.8998 25.9692 21.8625H29.6963V20.1636C29.105 20.1636 -0.240954 20.1636 0.701929 20.1636Z" fill="white"/>
</svg>
