<svg width="25" height="36" viewBox="0 0 25 36" fill="none" xmlns="http://www.w3.org/2000/svg">
<path d="M1.36334 0.363351C0.955268 0.426358 0.588941 0.648891 0.344945 0.981993C0.100949 1.3151 -0.000729714 1.73148 0.062278 2.13955L4.10099 28.2963C4.16399 28.7044 4.38653 29.0707 4.71963 29.3147C5.05273 29.5587 5.46912 29.6604 5.87719 29.5973C6.11497 29.5602 6.34089 29.4683 6.5372 29.3291C6.73352 29.1899 6.89488 29.0071 7.00863 28.795L10.9865 22.6949L18.2147 34.1782C18.8809 35.238 20.291 35.5453 21.3382 34.859C22.3711 34.1828 22.6615 32.7999 21.9866 31.7652L14.6066 20.4345L23.1529 19.0533C23.561 18.9903 23.9273 18.7678 24.1713 18.4347C24.4153 18.1016 24.517 17.6852 24.454 17.2771C24.4185 17.0478 24.3323 16.8293 24.2016 16.6377C24.0708 16.446 23.8989 16.2859 23.6983 16.1692L2.65842 0.760281C2.48639 0.600836 2.28056 0.482321 2.05631 0.413589C1.83205 0.344856 1.59516 0.327682 1.36334 0.363351Z" fill="white"/>
</svg>
