<svg width="35" height="35" viewBox="0 0 35 35" fill="none" xmlns="http://www.w3.org/2000/svg">
<path fill-rule="evenodd" clip-rule="evenodd" d="M2.5 20H10C11.3812 20 12.5 21.1187 12.5 22.5V32.5C12.5 33.8812 11.3812 35 10 35H2.5C1.11875 35 0 33.8812 0 32.5V22.5C0 21.1187 1.11875 20 2.5 20ZM25 28.75V35H18.75C17.755 35 16.8012 34.605 16.0987 33.9012C15.395 33.1987 15 32.245 15 31.25V13.75C15 12.755 15.395 11.8013 16.0987 11.0988C16.8012 10.395 17.755 10 18.75 10H31.25C33.3212 10 35 11.6788 35 13.75V25H28.75C26.6787 25 25 26.6787 25 28.75ZM28.75 27.5H34.2225C34.125 27.6287 34.0175 27.75 33.9012 27.8662L27.8662 33.9012C27.75 34.0175 27.6287 34.125 27.5 34.2225V28.75C27.5 28.06 28.06 27.5 28.75 27.5ZM30 16.25C30 16.94 29.44 17.5 28.75 17.5H21.25C20.56 17.5 20 16.94 20 16.25C20 15.56 20.56 15 21.25 15H28.75C29.44 15 30 15.56 30 16.25ZM5.605 11.2738L11.0563 17.2663C10.7288 17.4188 10.3687 17.5 10 17.5H2.5C1.8375 17.5 1.20125 17.2363 0.732498 16.7675C0.263748 16.2988 0 15.6625 0 15V2.5C0 1.8375 0.263748 1.20125 0.732498 0.732498C1.20125 0.263748 1.8375 0 2.5 0H10C10.3687 0 10.7288 0.0812503 11.0563 0.23375L5.605 6.22625C4.30375 7.6575 4.30375 9.8425 5.605 11.2738ZM7.455 7.90875L12.4963 2.36625C12.4988 2.41 12.5 2.455 12.5 2.5V15C12.5 15.045 12.4988 15.0888 12.4963 15.1338L7.455 9.59125C7.02125 9.11375 7.02125 8.38625 7.455 7.90875ZM20.2687 0H32.5C33.8812 0 35 1.11875 35 2.5V5C35 6.38125 33.8812 7.5 32.5 7.5H20.2687C19.9137 7.5 19.5637 7.425 19.24 7.27875L16.4725 6.02875C15.5763 5.62375 15.0012 4.7325 15.0012 3.75C15.0012 2.7675 15.5763 1.87625 16.4725 1.47125L19.24 0.221248C19.5637 0.0749977 19.9137 0 20.2687 0ZM21.25 22.5H26.25C26.94 22.5 27.5 21.94 27.5 21.25C27.5 20.56 26.94 20 26.25 20H21.25C20.56 20 20 20.56 20 21.25C20 21.94 20.56 22.5 21.25 22.5ZM5 28.75V26.25C5 25.56 5.56 25 6.25 25C6.94 25 7.5 25.56 7.5 26.25V28.75C7.5 29.44 6.94 30 6.25 30C5.56 30 5 29.44 5 28.75Z" fill="white"/>
</svg>
