<svg width="47" height="47" viewBox="0 0 47 47" fill="none" xmlns="http://www.w3.org/2000/svg">
<path d="M46.5871 10.6819C46.2385 10.2541 45.7159 10.0059 45.1641 10.0059H11.91L11.773 8.75338C11.7715 8.74035 11.7699 8.72731 11.7683 8.71428C11.1164 3.74641 6.84649 0 1.83594 0C0.821949 0 0 0.821949 0 1.83594C0 2.84993 0.821949 3.67188 1.83594 3.67188C5.00367 3.67188 7.70415 6.03574 8.12522 9.17363L10.7647 33.295C11.0076 35.5145 12.2166 37.4093 13.9463 38.5804C11.5469 42.1095 14.1532 47.0255 18.4512 47C22.1027 47.0506 24.8009 43.2707 23.579 39.8398H31.499C30.2777 43.271 32.9748 47.0505 36.627 47C43.8116 46.7028 43.8103 36.4646 36.6269 36.168H18.0649C16.1882 36.168 14.6189 34.7611 14.4148 32.8955L14.3611 32.4043H36.8192C40.2875 32.4043 43.3126 29.9386 44.012 26.5415L44.9778 21.8507C45.0891 21.3101 44.9513 20.7482 44.6026 20.3205C44.254 19.8928 43.7314 19.6445 43.1796 19.6445H34.9217L35.3991 13.6777H42.9117L42.8745 13.8583C42.67 14.8514 43.3093 15.8223 44.3025 16.0267C44.4274 16.0524 44.5519 16.0648 44.6746 16.0648C45.5276 16.0647 46.2922 15.4669 46.4709 14.5987L46.9623 12.212C47.0735 11.6715 46.9358 11.1095 46.5871 10.6819ZM36.627 39.8398C37.5887 39.8398 38.3711 40.6222 38.3711 41.584C38.2753 43.8978 34.9783 43.8972 34.8828 41.584C34.8828 40.6222 35.6652 39.8398 36.627 39.8398ZM18.4512 39.8398C19.4129 39.8398 20.1953 40.6222 20.1953 41.584C20.0995 43.8978 16.8025 43.8972 16.707 41.584C16.707 40.6222 17.4894 39.8398 18.4512 39.8398ZM12.3118 13.6777H19.4954L19.9727 19.6445H12.9648L12.3118 13.6777ZM13.9593 28.7324L13.3666 23.3164H20.2666L20.6998 28.7324H13.9593ZM30.511 28.7324H24.3834L23.9501 23.3164H30.9443L30.511 28.7324ZM31.238 19.6445H23.6563L23.179 13.6777H31.7154L31.238 19.6445ZM40.9272 23.3164L40.4156 25.801C40.0659 27.4996 38.5534 28.7324 36.8192 28.7324H34.1946L34.6279 23.3164H40.9272Z" fill="white"/>
</svg>
