<svg width="35" height="35" viewBox="0 0 35 35" fill="none" xmlns="http://www.w3.org/2000/svg">
<path d="M0.262918 22.8821L4.18302 29.6179C4.72426 30.5479 5.92302 30.8666 6.86058 30.3296L8.47462 29.4051C9.45333 30.1412 10.5046 30.7479 11.6198 31.2199V33.0556C11.6198 34.1294 12.4974 35 13.5799 35H21.4201C22.5026 35 23.3802 34.1294 23.3802 33.0556V31.2199C24.4954 30.7479 25.5467 30.1412 26.5254 29.4051L28.1394 30.3296C29.0768 30.8665 30.2756 30.5479 30.8168 29.6179L34.7369 22.8821C35.2782 21.9521 34.957 20.7629 34.0196 20.226L32.4123 19.3054C32.4886 18.6999 32.5271 18.0963 32.5271 17.5C32.5271 16.9037 32.4886 16.3001 32.4125 15.6946L34.0197 14.774C34.9571 14.2371 35.2783 13.0479 34.7371 12.1179L30.817 5.38209C30.2757 4.45213 29.077 4.13337 28.1395 4.67043L26.5254 5.59481C25.5469 4.85878 24.4954 4.25198 23.3802 3.78V1.94444C23.3802 0.870593 22.5026 0 21.4201 0H13.5799C12.4974 0 11.6198 0.870593 11.6198 1.94444V3.78C10.5046 4.25198 9.45307 4.85878 8.47462 5.59481L6.86058 4.6703C5.92315 4.13337 4.72439 4.452 4.18315 5.38196L0.263049 12.1178C-0.278187 13.0477 0.043001 14.237 0.980428 14.7739L2.58767 15.6945C2.51136 16.3001 2.47294 16.9037 2.47294 17.5C2.47294 18.0963 2.51136 18.6999 2.58754 19.3054L0.980296 20.226C0.0428694 20.7629 -0.278317 21.9521 0.262918 22.8821ZM17.5 11.6667C20.7423 11.6667 23.3802 14.2835 23.3802 17.5C23.3802 20.7165 20.7423 23.3333 17.5 23.3333C14.2577 23.3333 11.6198 20.7165 11.6198 17.5C11.6198 14.2835 14.2577 11.6667 17.5 11.6667Z" fill="white"/>
</svg>
