<svg width="60" height="60" viewBox="0 0 60 60" fill="none" xmlns="http://www.w3.org/2000/svg">
<path d="M29.6834 59.0445C45.899 59.0445 59.0443 45.8991 59.0443 29.6835C59.0443 13.4679 45.899 0.32251 29.6834 0.32251C13.4677 0.32251 0.322388 13.4679 0.322388 29.6835C0.322388 45.8991 13.4677 59.0445 29.6834 59.0445Z" fill="black"/>
<path d="M45.6303 16.0216L42.7247 48.5717L29.6639 52.1926L16.6391 48.5767L13.7365 16.0216H45.6303Z" fill="white"/>
<path d="M40.2371 46.499L42.7202 18.6834H29.6834V49.4248L40.2371 46.499Z" fill="black"/>
<path d="M20.3905 30.7577L20.7483 34.7503H29.6834V30.7577H20.3905Z" fill="black"/>
<path d="M29.6834 22.6762H29.6696H19.6714L20.0344 26.6691H29.6834V22.6762Z" fill="black"/>
<path d="M29.6834 45.2815V41.1273L29.6658 41.132L25.2191 39.9313L24.9348 36.7469H20.9267L21.4861 43.016L29.665 45.2866L29.6834 45.2815Z" fill="black"/>
<path d="M21.2424 7.1744H26.0784V9.19675H23.2648V11.2191H26.0784V13.2415H21.2424V7.1744Z" fill="white"/>
<path d="M27.0456 7.1744H31.8815V8.93296H29.0679V9.28472H31.8815V13.3293H27.0456V11.4829H29.8592V11.1311H27.0456V7.1744Z" fill="white"/>
<path d="M32.8487 7.1744H37.6847V8.93296H34.8711V9.28472H37.6847V13.3293H32.8487V11.4829H35.6623V11.1311H32.8487V7.1744Z" fill="white"/>
<path d="M37.8549 43.016L29.6696 45.2846V41.1306L34.1227 39.9286L34.5862 34.7503H29.6696V30.7577H34.9324L35.2958 26.6691H29.6696V22.6762H39.6715L37.8549 43.016Z" fill="white"/>
</svg>
