<svg width="48" height="48" viewBox="0 0 48 48" fill="none" xmlns="http://www.w3.org/2000/svg">
<path d="M41.1164 8.1654H46.5287C47.0313 8.1654 47.4388 7.75799 47.4388 7.2553V1.83808C47.4388 1.33539 47.0313 0.927979 46.5287 0.927979H41.1164C40.6137 0.927979 40.2063 1.33539 40.2063 1.83808V3.63659H27.7564V1.83808C27.7564 1.33539 27.349 0.927979 26.8463 0.927979H21.4341C20.9314 0.927979 20.524 1.33539 20.524 1.83808V3.63659H8.07412V1.83808C8.07412 1.33539 7.66671 0.927979 7.16402 0.927979H1.75177C1.24909 0.927979 0.841675 1.33539 0.841675 1.83808V7.2553C0.841675 7.75799 1.24909 8.1654 1.75177 8.1654H7.16402C7.66671 8.1654 8.07412 7.75799 8.07412 7.2553V5.45679H15.645C12.9791 6.66551 10.5755 8.44092 8.61698 10.6859C5.54611 14.2062 3.7707 18.6607 3.56557 23.3164H1.75177C1.24909 23.3164 0.841675 23.7238 0.841675 24.2265V29.6437C0.841675 30.1464 1.24909 30.5538 1.75177 30.5538H7.16402C7.66671 30.5538 8.07412 30.1464 8.07412 29.6437V24.2265C8.07412 23.7238 7.66671 23.3164 7.16402 23.3164H5.3879C5.8074 14.7398 12.1166 7.43661 20.524 5.79488V7.25566C20.524 7.75834 20.9314 8.16576 21.4341 8.16576H26.8463C27.349 8.16576 27.7564 7.75834 27.7564 7.25566V5.79488C36.1638 7.43661 42.473 14.7398 42.8925 23.3164H41.1164C40.6137 23.3164 40.2063 23.7238 40.2063 24.2265V29.6437C40.2063 30.1464 40.6137 30.5538 41.1164 30.5538H46.5287C47.0313 30.5538 47.4388 30.1464 47.4388 29.6437V24.2265C47.4388 23.7238 47.0313 23.3164 46.5287 23.3164H44.7149C44.5097 18.6607 42.7343 14.2062 39.6634 10.6859C37.705 8.44092 35.3014 6.66551 32.6354 5.45679H40.2063V7.25566C40.2063 7.75799 40.6137 8.1654 41.1164 8.1654ZM6.25392 6.3452H2.66187V2.74818H6.25392V6.3452ZM6.25392 28.7336H2.66187V25.1366H6.25392V28.7336ZM45.6186 28.7336H42.0265V25.1366H45.6186V28.7336ZM25.9362 6.3452H22.3442V2.74818H25.9362V6.3452ZM42.0265 2.74818H45.6186V6.3452H42.0265V2.74818Z" fill="black"/>
<path d="M24.9373 10.9551C24.7773 10.6646 24.4719 10.484 24.1402 10.484C23.8085 10.484 23.5031 10.6646 23.3432 10.9551L19.5631 17.8178C19.3206 18.2583 19.4809 18.8118 19.9214 19.0539C20.3612 19.2963 20.915 19.1364 21.1575 18.6959L23.2301 14.9328V21.6445C21.9666 22.0341 21.0459 23.2126 21.0459 24.6023C21.0459 26.3084 22.4341 27.6966 24.1402 27.6966C25.8463 27.6966 27.2346 26.3084 27.2346 24.6023C27.2346 23.2126 26.3138 22.0341 25.0503 21.6445V14.9328L31.2941 26.2693C29.2428 28.344 27.8446 31.0053 27.3014 33.8736H20.979C20.4355 31.0053 19.0373 28.344 16.9863 26.2693L18.0294 24.3755C18.2719 23.9354 18.1115 23.3818 17.6714 23.1394C17.2313 22.8969 16.6774 23.0569 16.4349 23.4974L15.0556 26.0023C14.8529 26.3699 14.9283 26.8288 15.238 27.1125C17.1979 28.9075 18.5587 31.2851 19.1219 33.8736H18.2743C16.7688 33.8736 15.544 35.0986 15.544 36.6039C15.544 37.6661 16.1537 38.5876 17.0414 39.0387V46.615C17.0414 47.1176 17.4489 47.5251 17.9515 47.5251C18.4542 47.5251 18.8616 47.1176 18.8616 46.615V39.3342H29.4188V46.615C29.4188 47.1176 29.8262 47.5251 30.3289 47.5251C30.8316 47.5251 31.239 47.1176 31.239 46.615V39.0387C32.1267 38.5876 32.7364 37.6658 32.7364 36.6039C32.7364 35.0983 31.5117 33.8736 30.0061 33.8736H29.1586C29.7217 31.2848 31.0826 28.9075 33.0425 27.1122C33.3521 26.8285 33.4275 26.3699 33.2248 26.0019L24.9373 10.9551ZM24.1402 25.8764C23.4377 25.8764 22.8661 25.3048 22.8661 24.6023C22.8661 23.8995 23.4377 23.3281 24.1402 23.3281C24.8427 23.3281 25.4144 23.8995 25.4144 24.6023C25.4144 25.3048 24.8427 25.8764 24.1402 25.8764ZM30.9162 36.6039C30.9162 37.1058 30.5081 37.514 30.0061 37.514H18.2743C17.7724 37.514 17.3642 37.1058 17.3642 36.6039C17.3642 36.1019 17.7724 35.6938 18.2743 35.6938H30.0061C30.5081 35.6938 30.9162 36.1019 30.9162 36.6039Z" fill="black"/>
<path d="M18.7369 22.0533C18.9765 22.0533 19.2111 21.9566 19.3803 21.7874C19.5495 21.6171 19.647 21.3835 19.647 21.1432C19.647 20.9036 19.5495 20.67 19.3803 20.4997C19.2111 20.3305 18.9765 20.2331 18.7369 20.2331C18.4965 20.2331 18.2619 20.3305 18.0927 20.4997C17.9235 20.67 17.8268 20.9036 17.8268 21.1432C17.8268 21.3835 17.9235 21.6171 18.0927 21.7874C18.2619 21.9566 18.4965 22.0533 18.7369 22.0533Z" fill="black"/>
</svg>
