<svg width="34" height="32" viewBox="0 0 34 32" fill="none" xmlns="http://www.w3.org/2000/svg">
<path d="M21.2627 10.0861C21.2627 8.59508 20.0541 7.38655 18.5632 7.38655H15.7576C14.2666 7.38655 13.0581 8.59508 13.0581 10.0861V28.8906C13.0581 30.3816 14.2666 31.5901 15.7576 31.5901H18.5632C20.0541 31.5901 21.2627 30.3816 21.2627 28.8906V10.0861Z" fill="black"/>
<path d="M9.1609 16.6497C9.1609 15.0455 7.86047 13.7451 6.25627 13.7451H3.86093C2.25673 13.7451 0.956299 15.0455 0.956299 16.6497V28.6855C0.956299 30.2897 2.25673 31.5901 3.86093 31.5901H6.25627C7.86047 31.5901 9.1609 30.2897 9.1609 28.6855V16.6497Z" fill="black"/>
<path d="M33.1594 2.90704C33.1594 1.41606 31.9508 0.20752 30.4598 0.20752H27.6543C26.1633 0.20752 24.9548 1.41606 24.9548 2.90704V28.8906C24.9548 30.3816 26.1633 31.5901 27.6543 31.5901H30.4598C31.9508 31.5901 33.1594 30.3816 33.1594 28.8906V2.90704Z" fill="black"/>
</svg>
