<svg width="71" height="71" viewBox="0 0 71 71" fill="none" xmlns="http://www.w3.org/2000/svg">
<path fill-rule="evenodd" clip-rule="evenodd" d="M39.1208 0.319028C33.5502 1.30651 28.632 3.89287 24.5354 7.98946C19.5912 12.9337 16.9885 18.7635 16.5959 25.7731C16.2763 31.4776 17.9718 37.6436 21.1451 42.3165L22.0803 43.6935L19.6461 46.1277L17.2117 48.5621L16.5145 47.9754C16.1309 47.6527 15.6009 47.3887 15.3364 47.3887C14.7453 47.3887 1.09819 60.9895 0.509721 62.1649C-0.0763252 63.3359 -0.17536 65.6922 0.308343 66.9584C0.845644 68.3654 2.37175 69.9471 3.77411 70.5504C4.70578 70.9511 5.2003 71.0228 6.46811 70.9406C7.32215 70.8852 8.3683 70.6653 8.79289 70.452C9.97182 69.8598 23.5709 56.2138 23.5709 55.6231C23.5709 55.3586 23.3068 54.8286 22.9842 54.445L22.3975 53.7478L24.8318 51.3134L27.266 48.8792L28.5616 49.7584C39.4631 57.1573 54.1851 55.5818 63.392 46.0311C74.7735 34.2248 73.177 15.0701 59.9973 5.29788C56.6155 2.79048 52.3259 0.965509 48.2684 0.307338C45.7129 -0.107107 41.4946 -0.101593 39.1208 0.319028ZM50.2517 3.15133C54.3388 4.29055 57.8507 6.28492 60.9 9.19817C63.2561 11.4493 64.6115 13.2919 66.0351 16.1784C67.8258 19.8101 68.3627 22.0213 68.4981 26.3245C68.5941 29.3712 68.544 30.1699 68.1318 32.1678C67.1564 36.8941 64.9452 41.0154 61.5084 44.5131C56.8185 49.2862 51.387 51.6974 44.7453 51.9553C37.5691 52.2338 31.2278 49.7688 26.2093 44.7502C19.4092 37.9504 17.1224 27.7346 20.3806 18.715C23.3938 10.3742 30.7463 4.22769 39.6544 2.60256C40.2102 2.5011 42.3521 2.45235 44.4144 2.49382C47.6451 2.55888 48.453 2.64998 50.2517 3.15133ZM41.0201 4.62449C35.97 5.2101 31.0309 7.69633 27.4306 11.4647C24.7028 14.3199 23.0521 17.1862 21.8941 21.0786C21.069 23.8522 20.9082 28.7036 21.5403 31.7547C23.3615 40.5449 30.3769 47.5949 39.0928 49.3936C41.7784 49.9479 45.7233 49.9494 48.3846 49.3971C52.8033 48.4805 56.44 46.5194 59.6545 43.3199C63.671 39.3221 65.7523 35.0195 66.3712 29.4341C66.8251 25.3357 66.0765 21.2098 64.1658 17.2813C60.7452 10.2487 54.143 5.56609 46.295 4.60663C44.195 4.34989 43.3628 4.35275 41.0201 4.62449ZM48.7781 7.44444C50.731 7.95461 53.6886 9.28154 55.2604 10.3528C56.8008 11.4025 59.2006 13.7615 60.3246 15.3306C64.6402 21.356 65.3032 29.6405 61.9987 36.25C59.8345 40.5789 55.7011 44.3656 51.2555 46.0917C46.4794 47.9462 41.0131 47.9522 36.3637 46.1076C27.8232 42.7195 22.5428 34.0227 23.5638 25.0269C24.6175 15.7464 31.5278 8.55918 40.8854 7.01169C42.6797 6.71502 46.8638 6.94441 48.7781 7.44444ZM40.3081 12.2976C34.2081 14.2487 30.7938 20.4263 32.3682 26.6624C33.4426 30.9178 36.5845 35.8287 41.3327 40.6739C43.7739 43.1652 43.8103 43.1637 46.4348 40.4525C50.8839 35.8568 54.0018 31.0491 55.0976 27.095C55.647 25.1123 55.6953 22.4419 55.2154 20.599C54.1908 16.6659 50.98 13.4083 46.966 12.2292C45.3177 11.7451 41.9262 11.7799 40.3081 12.2976ZM45.431 14.3083C50.4772 15.2651 53.9114 20.0904 53.1112 25.0993C52.7033 27.6519 51.297 30.6143 48.9989 33.7616C47.7823 35.428 44.1127 39.6688 43.8875 39.6688C43.8068 39.6688 43.0901 38.999 42.2948 38.18C37.2361 32.9717 34.3786 27.743 34.3786 23.6945C34.3786 20.8278 35.2902 18.7033 37.3607 16.7453C39.6191 14.6093 42.4737 13.7474 45.431 14.3083ZM41.8779 16.8483C38.0689 18.031 36.6701 22.9807 39.2309 26.214C40.83 28.2329 44.0752 28.9018 46.426 27.6969C48.485 26.6417 49.5863 24.8207 49.5907 22.4646C49.5984 18.3605 45.8344 15.6198 41.8779 16.8483ZM45.802 19.5187C46.701 20.1736 47.4408 21.7431 47.3173 22.7341C47.1653 23.9552 46.3583 25.1013 45.3177 25.5737C44.1484 26.1048 43.3312 26.0984 42.2233 25.5492C40.967 24.9268 40.4837 24.1661 40.3732 22.6362C40.294 21.5433 40.3624 21.2303 40.8364 20.5139C41.1421 20.0518 41.7248 19.5044 42.1313 19.2973C43.0968 18.8052 44.9784 18.9188 45.802 19.5187ZM24.5678 46.511L25.434 47.3979L23.0697 49.7622L20.7055 52.1262L19.7707 51.1914L18.836 50.2567L21.1442 47.9405C22.414 46.6665 23.5087 45.6241 23.5773 45.6241C23.6459 45.6241 24.0916 46.0231 24.5678 46.511ZM14.5836 61.7928C11.2167 65.1685 8.19405 68.0728 7.86651 68.2468C7.10511 68.6511 5.19721 68.6546 4.42566 68.2532C3.74279 67.8978 3.01382 67.1435 2.62363 66.3878C2.28573 65.7339 2.28815 63.8926 2.6276 63.2236C2.76855 62.9454 5.6765 59.9144 9.08955 56.4879L15.295 50.2578L18.0002 52.9564L20.7053 55.6551L14.5836 61.7928Z" fill="white"/>
</svg>
