<svg width="82" height="70" viewBox="0 0 82 70" fill="none" xmlns="http://www.w3.org/2000/svg">
<path fill-rule="evenodd" clip-rule="evenodd" d="M5.05068 0.296576C2.66018 0.943878 0.710526 3.20336 0.211548 5.90446C0.0340242 6.86546 -0.0323857 16.8592 0.0146438 35.4917C0.0857049 63.4794 0.0888058 63.6342 0.630162 64.804C1.38909 66.4444 2.60954 67.7519 4.03799 68.4555L5.25404 69.0545H41.043H76.8319L78.048 68.4555C79.4764 67.7519 80.6969 66.4444 81.4558 64.804C81.999 63.6303 82 63.5696 82 34.5576C82 5.54554 81.999 5.48481 81.4558 4.31114C80.6969 2.67079 79.4764 1.36327 78.048 0.659634L76.8319 0.0606537L41.5598 0.0112981C13.3586 -0.0282377 6.03959 0.0288696 5.05068 0.296576ZM77.4436 3.52353C79.0638 4.67937 79.2746 5.59386 79.2811 11.495L79.2868 16.7277H41.043H2.7992L2.80489 11.495C2.8098 6.95151 2.87388 6.12281 3.29146 5.20315C3.73411 4.22897 4.68297 3.32274 5.64165 2.95891C5.85483 2.87803 21.9017 2.83229 41.3014 2.85736L76.5735 2.9031L77.4436 3.52353ZM9.1301 4.77575C7.76159 5.00211 7.39233 5.16646 6.51014 5.94089C4.57754 7.63783 4.12482 9.97174 5.27911 12.2878C6.04088 13.8165 7.53394 14.8752 9.25336 15.106C10.818 15.3158 12.932 14.1953 13.8152 12.6881C14.6279 11.3012 14.862 9.64615 14.4302 8.33811C14.0853 7.2926 12.8646 5.76725 12.0017 5.30289C11.3239 4.93829 9.81875 4.66179 9.1301 4.77575ZM20.6255 4.84164C17.3492 5.40677 15.5204 9.12546 17.0078 12.1984C18.0693 14.3907 20.4557 15.5354 22.6919 14.9246C24.2413 14.5013 25.8984 12.8426 26.3163 11.2968C26.8633 9.27224 25.8767 6.61223 24.1648 5.49618C23.3563 4.96904 21.6821 4.65947 20.6255 4.84164ZM32.3865 4.83079C29.9678 5.39954 28.591 7.06159 28.4287 9.60842C28.3101 11.4715 28.8716 12.8656 30.1867 13.9721C30.9324 14.5995 32.4164 15.1744 33.2909 15.1744C34.1653 15.1744 35.6493 14.5995 36.3951 13.9721C38.8752 11.885 38.8416 7.67272 36.3294 5.7905C35.1387 4.89849 33.6449 4.53492 32.3865 4.83079ZM11.088 8.18048C11.6472 8.73967 11.8433 9.18102 11.8433 9.88C11.8433 11.0485 10.6924 12.3348 9.64691 12.3348C8.60141 12.3348 7.45047 11.0485 7.45047 9.88C7.45047 9.18102 7.6466 8.73967 8.20579 8.18048C9.18591 7.20035 10.1079 7.20035 11.088 8.18048ZM23.0379 8.16885C23.2979 8.42855 23.5744 9.11797 23.6527 9.70041C23.7775 10.632 23.6997 10.8544 23.0069 11.5472C22.1702 12.3837 21.4658 12.5232 20.5474 12.0343C19.6624 11.563 19.3541 10.9997 19.3453 9.8384C19.3296 7.78874 21.6216 6.75254 23.0379 8.16885ZM34.301 7.80063C35.7514 8.55077 35.954 10.4705 34.7134 11.7111C33.5984 12.8261 31.9665 12.4222 31.3182 10.8707C30.8303 9.70325 31.2257 8.35697 32.2136 7.82052C33.0937 7.34248 33.4092 7.33938 34.301 7.80063ZM79.2811 41.2115C79.2756 61.7577 79.2511 62.9063 78.7945 63.912C78.5299 64.4944 77.9219 65.2503 77.4436 65.5916L76.5735 66.2121H41.043H5.51244L4.6424 65.5916C4.16409 65.2503 3.55607 64.4944 3.29146 63.912C2.83486 62.9063 2.81032 61.7577 2.80489 41.2115L2.7992 19.5702H41.043H79.2868L79.2811 41.2115ZM40.3257 23.4049C39.8029 23.7367 29.9298 42.5353 29.9479 43.1645C29.9569 43.4761 30.5177 45.7077 31.1939 48.1238C32.3203 52.1464 32.3844 52.5236 31.9552 52.5988C30.8877 52.7864 30.7068 53.5684 30.7068 58.0008C30.7068 61.8623 30.7492 62.2492 31.2236 62.7236C31.7213 63.2213 32.0849 63.2404 41.043 63.2404C50.0011 63.2404 50.3646 63.2213 50.8623 62.7236C51.3368 62.2492 51.3791 61.8623 51.3791 58.0008C51.3791 54.612 51.3008 53.6828 50.9768 53.2203C50.7556 52.9043 50.399 52.6459 50.1843 52.6459C49.9352 52.6459 49.8409 52.482 49.9241 52.1936C50.559 49.9853 52.1544 43.4715 52.1544 43.0865C52.1544 42.4965 42.2291 23.7025 41.7603 23.4049C41.5789 23.2899 41.2562 23.1958 41.043 23.1958C40.8298 23.1958 40.5071 23.2899 40.3257 23.4049ZM39.751 33.8679C39.751 37.2902 39.7468 37.315 39.0962 37.6631C36.9015 38.8378 36.8757 42.543 39.053 43.8705C40.7766 44.9216 43.3875 44.2808 44.2604 42.5924C45.1281 40.9143 44.4981 38.4703 42.9898 37.6631C42.3386 37.3145 42.335 37.2938 42.335 33.8162C42.335 31.8213 42.4314 30.4252 42.5596 30.5652C42.6831 30.7001 44.2578 33.6015 46.0594 37.0124L49.3346 43.2141L48.9235 44.8937C48.6974 45.8175 48.1543 47.9395 47.7163 49.6096L46.9199 52.6459H41.15H35.3801L34.8731 50.9016C34.5943 49.9422 33.9963 47.8318 33.5441 46.2119L32.7224 43.266L33.2309 42.3358C33.5105 41.8239 35.0428 38.9344 36.6359 35.9142C38.229 32.8942 39.5817 30.4231 39.6417 30.4231C39.7019 30.4231 39.751 31.9733 39.751 33.8679ZM41.8086 40.483C42.0102 40.8595 41.9761 41.0812 41.6701 41.3875C41.4469 41.6105 41.1647 41.7929 41.043 41.7929C40.9213 41.7929 40.6391 41.6105 40.4158 41.3875C40.1099 41.0812 40.0758 40.8595 40.2773 40.483C40.6208 39.8412 41.4652 39.8412 41.8086 40.483ZM48.5367 57.9431V60.398H41.043H33.5493V57.9431V55.4883H41.043H48.5367V57.9431Z" fill="white"/>
</svg>
