<svg width="61" height="62" viewBox="0 0 61 62" fill="none" xmlns="http://www.w3.org/2000/svg">
<path fill-rule="evenodd" clip-rule="evenodd" d="M20.9134 0.350584C10.5264 2.22635 2.14617 10.6246 0.28456 21.0241C-0.101273 23.1793 -0.0933376 27.829 0.299787 30.0833C1.86349 39.0504 8.5775 46.8256 17.3153 49.7883C22.6018 51.5808 29.0134 51.4897 34.3376 49.5468L36.0714 48.9139L37.9186 50.3817C38.9348 51.1892 40.0781 52.0091 40.4595 52.2041C41.4876 52.7297 42.8403 52.838 43.9785 52.4863L44.9736 52.1783L48.9113 56.133C51.0768 58.3081 53.2348 60.2945 53.7067 60.5474C54.8292 61.1488 57.019 61.1829 58.1033 60.6158C59.1523 60.0672 59.9947 59.24 60.5279 58.2348C61.1593 57.0442 61.157 54.9139 60.5232 53.7309C60.2703 53.259 58.2839 51.101 56.1087 48.9355L52.1541 44.9978L52.4591 44.0027C52.8014 42.8855 52.6804 41.4642 52.1556 40.4365C51.974 40.0811 51.165 38.959 50.3577 37.943L48.8899 36.0958L49.4115 34.765C50.7281 31.4051 51.3179 27.2021 51.0003 23.4394C50.78 20.828 50.4915 19.4447 49.692 17.1636C47.1231 9.83449 41.3885 4.03562 34.1328 1.43023C30.3068 0.0563292 24.9605 -0.380333 20.9134 0.350584ZM30.2225 2.47234C36.4186 3.7759 41.8692 7.49032 45.2443 12.7093C53.842 26.0039 47.253 43.7415 32.0839 48.1373C21.1637 51.302 9.62884 46.272 4.58878 36.1477C2.0904 31.1291 1.43477 26.3753 2.48782 20.9168C4.37109 11.1567 12.5705 3.51424 22.6084 2.16351C24.4983 1.90914 28.2728 2.06228 30.2225 2.47234ZM21.3482 5.50453C13.781 7.12722 7.79683 12.8328 5.7304 20.395C5.04002 22.9217 5.03616 28.2267 5.7229 30.7177C7.75222 38.0784 13.5429 43.7155 20.9055 45.4976C23.35 46.0893 27.1886 46.1322 29.6662 45.5954C37.5701 43.883 43.5577 38.0198 45.4783 30.1123C46.1213 27.4649 46.1213 23.5911 45.4783 20.9436C43.5403 12.9649 37.337 6.99017 29.399 5.45714C27.3958 5.07023 23.2591 5.09468 21.3482 5.50453ZM30.1149 7.71315C35.2845 9.03408 39.6734 12.6376 42.0163 17.4853C43.322 20.1872 43.7353 21.8054 43.8781 24.7773C44.0328 27.9967 43.5086 30.5258 42.0914 33.3969L41.0529 35.5009L40.9457 29.2194C40.8558 23.9505 40.7865 22.9054 40.5167 22.7351C40.3398 22.6234 39.0643 22.5305 37.6825 22.5286C35.4162 22.5256 35.1483 22.5659 34.948 22.9402C34.8049 23.2074 34.726 26.5881 34.726 32.4414V41.5277L33.7609 41.9968L32.7958 42.4656V36.4632C32.7958 29.0897 33.0353 29.6029 29.5939 29.6029C27.7493 29.6029 27.1783 29.6748 26.913 29.9398C26.6207 30.2322 26.5761 31.1855 26.5761 37.1246V43.9725H25.5038H24.4314V34.9722C24.4314 26.2934 24.4166 25.964 24.0166 25.7499C23.7884 25.6279 22.6238 25.528 21.4288 25.528C20.2338 25.528 19.0692 25.6279 18.841 25.7499C18.4419 25.9636 18.4262 26.285 18.4262 34.2215C18.4262 38.7589 18.3805 42.4712 18.3248 42.4712C18.2688 42.4712 17.7862 42.2588 17.2524 41.9995L16.2815 41.5277V35.9023C16.2815 31.0744 16.2337 30.2292 15.9446 29.9398C15.6799 29.6754 15.1122 29.6029 13.3047 29.6029C10.1326 29.6029 10.1963 29.539 10.0619 32.8556L9.95462 35.5009L9.05492 33.6779C6.70582 28.9183 6.52695 23.382 8.56271 18.4451C10.8766 12.8339 16.1708 8.55688 22.223 7.40946C24.3879 6.99897 27.8391 7.13172 30.1149 7.71315ZM31.9808 13.5605C31.6438 13.8974 31.6514 14.692 31.9943 14.9766C32.1431 15.1002 32.6469 15.2327 33.1134 15.2709L33.9618 15.3406L31.691 17.3152L29.42 19.2899L24.8202 17.7603L20.2205 16.2306L16.3195 19.0027C12.1478 21.9671 11.7099 22.4623 12.6136 23.1943C12.8811 23.4107 13.2433 23.5184 13.4503 23.4427C13.6508 23.3691 15.3383 22.224 17.2001 20.898L20.5849 18.4871L25.0225 19.9699C27.4632 20.7856 29.5804 21.453 29.7273 21.453C29.8745 21.453 31.2765 20.3564 32.8429 19.0162L35.6911 16.5792L35.7576 17.6691C35.7941 18.2686 35.9266 18.8828 36.0519 19.0338C36.3472 19.3896 37.1819 19.3868 37.4787 19.0291C37.8425 18.5911 37.847 13.7243 37.4839 13.4944C37.0219 13.2017 32.2827 13.2585 31.9808 13.5605ZM38.8009 31.3633V38.271L38.0068 39.0842C37.5699 39.5316 37.1356 39.8975 37.0416 39.8975C36.9477 39.8975 36.8707 36.4231 36.8707 32.1766V24.4556H37.8358H38.8009V31.3633ZM22.5012 35.7383C22.5012 42.6415 22.457 43.7869 22.1947 43.6864C22.0261 43.6216 21.5436 43.5041 21.1223 43.4249L20.3565 43.2812V35.4771V27.6727H21.4288H22.5012V35.7383ZM14.3513 35.8226C14.3513 38.3883 14.2721 39.8975 14.1374 39.8975C14.0197 39.8975 13.5371 39.5486 13.0651 39.122L12.2066 38.3462V35.047V31.7476H13.2789H14.3513V35.8226ZM30.6511 37.5257V43.3037L29.7396 43.4955C29.2381 43.6008 28.7556 43.649 28.6672 43.6025C28.5788 43.5562 28.5063 40.8699 28.5063 37.6329V31.7476H29.5787H30.6511V37.5257ZM49.0102 39.5055C49.588 40.2334 50.178 41.0297 50.3213 41.2748C50.6775 41.8844 50.6616 43.228 50.2899 43.9296C49.9234 44.6208 44.4722 50.0433 43.8016 50.3834C43.1877 50.6948 41.8134 50.6742 41.2506 50.3455C40.7518 50.0538 38.1575 48.02 38.1575 47.9202C38.1575 47.8853 39.0021 47.2779 40.0342 46.5708C42.7249 44.7274 45.5283 41.8187 47.2412 39.0932C47.5563 38.5918 47.8469 38.1817 47.887 38.1817C47.9271 38.1817 48.4326 38.7773 49.0102 39.5055ZM58.3401 54.1384C59.4425 55.6229 59.0015 57.8665 57.4498 58.6689C56.6378 59.0888 55.1112 59.0712 54.4515 58.6343C54.1598 58.4411 52.2566 56.6329 50.2222 54.616L46.5232 50.9488L48.7179 48.7468L50.9123 46.5446L54.3158 49.9234C56.1877 51.7816 57.9987 53.6783 58.3401 54.1384Z" fill="#161616"/>
</svg>
