<svg width="35" height="60" viewBox="0 0 35 60" fill="none" xmlns="http://www.w3.org/2000/svg">
<path d="M2.5 0C1.83696 0 1.20107 0.263392 0.732234 0.732233C0.263393 1.20107 0 1.83696 0 2.5V45C0 45.663 0.263393 46.2989 0.732234 46.7678C1.20107 47.2366 1.83696 47.5 2.5 47.5C2.88646 47.4992 3.26749 47.4089 3.61315 47.2361C3.95882 47.0632 4.25971 46.8126 4.49219 46.5039L12.2998 37.7978L20.957 57.793C21.7545 59.638 23.9171 60.4712 25.7471 59.6387C27.5521 58.8187 28.3517 56.6952 27.5342 54.8877L18.5986 35.0977L32.5 35C33.163 35 33.7989 34.7366 34.2678 34.2678C34.7366 33.7989 35 33.163 35 32.5C35 32.1274 34.9166 31.7595 34.7561 31.4233C34.5956 31.0871 34.3619 30.791 34.0723 30.5566L4.45801 0.947266C4.22408 0.652077 3.92647 0.41356 3.58742 0.249531C3.24837 0.0855018 2.87664 0.000200845 2.5 0Z" fill="white"/>
</svg>
