<svg width="46" height="49" viewBox="0 0 46 49" fill="none" xmlns="http://www.w3.org/2000/svg">
<path d="M31.056 19.2227L27.7402 22.5367V22.5376C26.1861 27.7504 21.3479 31.5619 15.6367 31.5619C12.2906 31.5619 9.26029 30.2587 7.0073 28.1436L15.6857 19.4652L20.2829 24.0625C20.8284 24.608 21.7131 24.6083 22.2589 24.0629L35.246 11.0846L37.0437 12.8824C37.9221 13.7609 39.4283 13.137 39.4295 11.8956L39.4388 2.1176C39.4392 1.74633 39.2918 1.39005 39.0292 1.12769C38.581 0.679926 38.0495 0.720827 38.0391 0.718684L28.2681 0.734989C27.0263 0.736945 26.4049 2.24329 27.2822 3.12065L29.0547 4.89317L21.228 12.7198L16.559 8.05073C16.0136 7.50532 15.1283 7.50495 14.5826 8.05073L3.02838 19.6049C2.49844 9.54645 13.3963 3.0163 21.9768 8.0184L24.0116 5.98361C14.0748 -0.455326 0.592311 6.38535 0.222993 18.4578C-0.0337778 27.2027 6.99128 34.3568 15.6367 34.3568C24.0442 34.3569 30.9032 27.5938 31.056 19.2227Z" fill="black"/>
<path d="M44.7415 42.0821L31.1436 28.4843C29.656 30.8911 27.6243 32.9272 25.221 34.42L38.8123 48.0112C39.3579 48.5568 40.2428 48.557 40.7886 48.0112L44.7415 44.0584C45.287 43.5131 45.2872 42.6277 44.7415 42.0821Z" fill="black"/>
</svg>
