<svg width="31" height="26" viewBox="0 0 31 26" fill="none" xmlns="http://www.w3.org/2000/svg">
<path d="M31 2.98246C29.8595 3.48879 28.6337 3.82979 27.3472 3.9835C28.6608 3.19687 29.6696 1.95042 30.1436 0.465C28.9153 1.1935 27.5538 1.72308 26.1046 2.00854C24.946 0.772417 23.2913 0 21.4623 0C17.3561 0 14.3388 3.83108 15.2662 7.80812C9.982 7.54333 5.29583 5.01167 2.15838 1.16379C0.492125 4.02225 1.29425 7.76162 4.12558 9.65521C3.0845 9.62162 2.10283 9.33617 1.24646 8.85954C1.17671 11.8058 3.28858 14.5622 6.34725 15.1758C5.45213 15.4186 4.47175 15.4755 3.47458 15.2843C4.28317 17.8108 6.63142 19.6488 9.41625 19.7005C6.7425 21.7969 3.37383 22.7333 0 22.3355C2.81454 24.14 6.15867 25.1927 9.7495 25.1927C21.5579 25.1927 28.2294 15.2197 27.8264 6.27492C29.069 5.37721 30.1475 4.25733 31 2.98246Z" fill="white"/>
</svg>
