<svg width="656" height="712" viewBox="0 0 656 712" fill="none" xmlns="http://www.w3.org/2000/svg">
<path d="M367.398 39.9553C451.103 44.2952 539.318 78.3265 595.386 149.19C651.466 219.285 676.147 326.993 633.477 380.21C590.807 433.427 480.785 432.152 380.092 469.49C279.013 507.207 186.127 583.135 115.161 567.06C44.5816 550.608 -4.83872 442.142 0.377125 346.811C5.59297 251.479 65.4564 168.514 134.786 114.93C204.501 60.9665 283.694 35.6153 367.398 39.9553Z" fill="#0038FF" fill-opacity="0.67"/>
<path d="M229.912 704.493C178.393 680.202 148.359 590.797 123.469 506.255C99.2931 421.952 80.6882 342.261 106.183 283.989C131.538 226.456 200.706 189.853 300.4 162.275C399.668 134.946 529.174 116.154 594.192 177.175C659.069 238.935 658.745 380.271 620.086 471.862C581.427 563.453 503.721 605.06 428.722 646.393C353.723 687.726 281.431 728.785 229.912 704.493Z" fill="#0038FF" fill-opacity="0.71"/>
<path d="M406.592 103.399C506.545 155.225 598.443 186.517 631.375 252.079C664.588 318.124 639.32 418.16 585.304 503.22C531.288 588.281 448.525 658.368 374.292 653.018C299.777 647.186 233.793 565.918 171.944 490.652C109.612 415.668 50.9309 346.966 37.8848 251.095C25.041 154.46 57.3485 30.9357 127.889 5.45551C198.148 -20.508 306.156 51.8533 406.592 103.399Z" fill="#0038FF" fill-opacity="0.7"/>
</svg>
