<svg width="71" height="82" viewBox="0 0 71 82" fill="none" xmlns="http://www.w3.org/2000/svg">
<path fill-rule="evenodd" clip-rule="evenodd" d="M0 22.4049V63.5657L32.9249 81.7932L32.925 72.2986L8.81402 58.3782L8.4931 37.3722L32.9249 50.897L32.925 41.4024L0 22.4049Z" fill="url(#paint0_linear_102_38)"/>
<path d="M38.16 81.7932L46.974 76.9137L71 62.969V52.6021L46.974 67.2098V36.6237L38.1088 41.4024L38.16 81.7932Z" fill="url(#paint1_linear_102_38)"/>
<path d="M44.5242 31.9259L35.5 37.0346L2.76226 18.0313L34.835 0L42.5637 4.34798L20.6727 17.5133L24.3487 19.5915L42.5637 9.01509L50.1808 13.1974L32.2262 24.6045L44.5242 31.9259Z" fill="url(#paint2_linear_102_38)"/>
<defs>
<linearGradient id="paint0_linear_102_38" x1="35.5" y1="88.8523" x2="35.5149" y2="-7.62177" gradientUnits="userSpaceOnUse">
<stop offset="0.0270194" stop-color="#55B0F3"/>
<stop offset="0.21875" stop-color="#4E94F3"/>
<stop offset="0.364208" stop-color="#516FEE"/>
<stop offset="0.584734" stop-color="#8533C4"/>
<stop offset="0.91264" stop-color="#D13867"/>
</linearGradient>
<linearGradient id="paint1_linear_102_38" x1="35.5" y1="88.8523" x2="35.5149" y2="-7.62177" gradientUnits="userSpaceOnUse">
<stop offset="0.0270194" stop-color="#55B0F3"/>
<stop offset="0.21875" stop-color="#4E94F3"/>
<stop offset="0.364208" stop-color="#516FEE"/>
<stop offset="0.584734" stop-color="#8533C4"/>
<stop offset="0.91264" stop-color="#D13867"/>
</linearGradient>
<linearGradient id="paint2_linear_102_38" x1="35.5" y1="88.8523" x2="35.5149" y2="-7.62177" gradientUnits="userSpaceOnUse">
<stop offset="0.0270194" stop-color="#55B0F3"/>
<stop offset="0.21875" stop-color="#4E94F3"/>
<stop offset="0.364208" stop-color="#516FEE"/>
<stop offset="0.584734" stop-color="#8533C4"/>
<stop offset="0.91264" stop-color="#D13867"/>
</linearGradient>
</defs>
</svg>
