<svg xmlns="http://www.w3.org/2000/svg" viewBox="0 0 800 800"><defs><style>.cls-1{fill:#4a83c4;stroke:#231f20;stroke-miterlimit:10;stroke-width:5px;}.cls-2{fill:#231f20;}.cls-3{fill:#685b50;}.cls-4{fill:#483c31;}.cls-5{fill:#f9f8e3;}.cls-6{fill:#87766c;}.cls-7{fill:#221e1f;}.cls-8{fill:#4c4549;}.cls-9{fill:#8c7163;}.cls-10{fill:#a79577;}</style></defs><g id="Layer_2" data-name="Layer 2"><g id="Layer_1-2" data-name="Layer 1"><circle class="cls-1" cx="400" cy="400" r="395.2"/><path class="cls-2" d="M400,800C179.44,800,0,620.56,0,400S179.44,0,400,0,800,179.44,800,400,620.56,800,400,800ZM400,9.61C184.74,9.61,9.61,184.73,9.61,400S184.74,790.39,400,790.39,790.39,615.26,790.39,400,615.26,9.61,400,9.61Z"/><path class="cls-3" d="M583.73,396.86s13.34,27,79.84,32c0,0,27.41-29.88-11.66-66.94C651.91,361.89,590.46,343.84,583.73,396.86Z"/><path class="cls-3" d="M216.27,396.86s-13.34,27-79.84,32c0,0-27.41-29.88,11.66-66.94C148.09,361.89,209.54,343.84,216.27,396.86Z"/><rect class="cls-4" x="218.68" y="385.65" width="361.93" height="152.94" rx="30.06"/><path class="cls-5" d="M244.36,556.48a27.47,27.47,0,0,0,8.89,1.52c1,0,1.6-.8,1.27-1.52Z"/><path class="cls-5" d="M269.29,556.48a34.36,34.36,0,0,0,11.11,3,39.93,39.93,0,0,0,3.33,6.09l.1.17a53.08,53.08,0,0,1,4.4,21.12c0,1.21,2,1.6,2.68.51,1.29-2.18,2.77-4.82,4-7.46a1.58,1.58,0,0,1,2.3-.43l.08.06a.93.93,0,0,1,.38.64c.86,11,4.88,29,21.87,31.38,1.14.16,2-.8,1.51-1.64-1.81-2.93-4.63-8.76-2.22-13.73l1.16-2.4a1.56,1.56,0,0,1,1.95-.6c.57.24,1.15.47,1.74.7a1.27,1.27,0,0,1,.7.62c4.7,10.1,17.13,30.89,38.63,27,1.06-.19,1.44-1.26.68-1.89-3.28-2.72-10.14-9.13-11.28-15.84-.13-.79.79-1.42,1.74-1.24l2.84.53a1.45,1.45,0,0,1,.87.49c6.57,8.21,17.63,16.56,34.64,14,1-.15,1.5-1.1.91-1.78a59.74,59.74,0,0,1-5.76-7.7c-.48-.78.26-1.68,1.33-1.64q3.5.12,7.05.14a1.36,1.36,0,0,1,1.38.93c.72,3.68-2.89,7,5.77,1.27a17.42,17.42,0,0,0,2.53-2,1.32,1.32,0,0,1,.85-.33h0c.92,0,1.55.73,1.15,1.4a59.92,59.92,0,0,1-5.92,8c-.59.68-.1,1.63.91,1.78,17,2.56,28.11-5.83,34.68-14.06a1.46,1.46,0,0,1,.86-.49c1-.17,1.88-.34,2.81-.53s1.87.45,1.74,1.24c-1.1,6.73-8,13.17-11.29,15.9-.76.63-.38,1.7.68,1.89,21.59,3.87,34.05-17.12,38.7-27.18a1.2,1.2,0,0,1,.69-.61l1.63-.66a1.55,1.55,0,0,1,2,.6l1.2,2.49c2.41,5-.41,10.8-2.21,13.73-.52.84.36,1.8,1.51,1.64,17.1-2.37,21.06-20.69,21.88-31.61a.93.93,0,0,1,.38-.64,1.56,1.56,0,0,1,2.28.43c1.25,2.69,2.77,5.4,4.09,7.62.66,1.09,2.69.71,2.68-.5A49.79,49.79,0,0,1,508.6,574c11.42-2.73,17.78-10.26,21.35-17.56Z"/><path class="cls-5" d="M536.07,556.48c-.31,6.09-4.37,12.35-6.52,15.25-.56.75.11,1.73,1.2,1.72,13.11-.15,20.61-8.21,24.9-17Z"/><path class="cls-3" d="M550.46,502H249.54c-16.25,0-29.55,9.56-29.55,21.25v24.72c0,11.69,13.3,21.25,29.55,21.25h10c8.06-12.9,26-12.29,47-12.29s38.92-.61,47,12.29h.76c8.57,11.9,25.82,20.05,45.75,20.05s37.18-8.15,45.75-20.05h.76c8.05-12.9,26-12.29,47-12.29s38.92-.61,47,12.29h10c16.25,0,29.55-9.56,29.55-21.25V523.21C580,511.52,566.71,502,550.46,502Z"/><path class="cls-6" d="M550.46,502H249.54c-16.25,0-29.55,9.56-29.55,21.25v23.71c0-11.69,13.3-21.25,29.55-21.25H550.46c16.25,0,29.55,9.56,29.55,21.25V523.21C580,511.52,566.71,502,550.46,502Z"/><path class="cls-7" d="M496.59,497.7H303.41c-16.5,0-30,10.94-30,24.31h0c0,50,13.89,5.38,83.31,23.16h.48c0,11.37,19.16,20.58,42.8,20.58s42.8-9.21,42.8-20.58h.48c69.42-17.78,83.31,26.89,83.31-23.16h0C526.59,508.64,513.09,497.7,496.59,497.7Z"/><path class="cls-8" d="M468.59,496.36H331.41c-11.72,0-21.3,7.77-21.3,17.26h0c0,35.54,9.86,3.83,59.16,16.45h.34c0,8.07,13.61,14.62,30.39,14.62s30.39-6.55,30.4-14.62h.33c49.3-12.62,59.16,19.09,59.16-16.45h0C489.89,504.13,480.31,496.36,468.59,496.36Z"/><path class="cls-5" d="M169.55,339.57a1.09,1.09,0,0,0,1.51-1.23c-.72-3-1.57-8.79,1.36-12.9l1.41-2a1.12,1.12,0,0,1,1.62-.21c.38.31.77.63,1.17.94a1,1,0,0,1,.39.68c1.34,10,6.18,31.15,23.38,31.39a1.06,1.06,0,0,0,.94-1.61c-1.89-3-5.69-10.09-5.06-16.4a1.11,1.11,0,0,1,1.6-.83c.67.33,1.35.66,2,1a1,1,0,0,1,.55.6c3.18,8.63,9.74,18.16,23.24,18.8a1.08,1.08,0,0,0,1.09-1.46,55.92,55.92,0,0,1-2.67-8,1.08,1.08,0,0,1,1.37-1.27c1.76.49,3.53.94,5.33,1.37a1.06,1.06,0,0,1,.85,1.08c-.27,3.48-3.75,5.85,4.1,2.16a13.62,13.62,0,0,0,2.38-1.41,1,1,0,0,1,.72-.15h0a.91.91,0,0,1,.55,1.48,58.72,58.72,0,0,1-6.26,6.23,1.06,1.06,0,0,0,.29,1.78,23.75,23.75,0,0,0,14.35,1.61c-.52,9.47,1.15,20.41,10.62,24.31a1.09,1.09,0,0,0,1.51-1.23c-.72-3-1.57-8.79,1.36-12.9l.92-1.28a19.11,19.11,0,0,0,3-.17,2.43,2.43,0,0,1,.25.2,1,1,0,0,1,.4.68c1.33,10,6.18,31.15,23.38,31.39a1.07,1.07,0,0,0,.94-1.61c-1.89-3.05-5.69-10.09-5.06-16.41a1.09,1.09,0,0,1,1.59-.82l2,1a1.1,1.1,0,0,1,.56.6c3,8.17,9.05,17.13,21.14,18.61a41.63,41.63,0,0,0,2.61,5.7,1.11,1.11,0,0,1,.07.16,58.55,58.55,0,0,1,3.45,19.78,1.11,1.11,0,0,0,2.09.48c1-2,2.17-4.52,3.13-7a1.13,1.13,0,0,1,1.8-.4l.06.06a.89.89,0,0,1,.3.6c.67,10.25,3.81,27.18,17.09,29.39a1.08,1.08,0,0,0,1.18-1.54c-1.41-2.74-3.62-8.21-1.74-12.86l.91-2.24a1.1,1.1,0,0,1,1.52-.56l1.37.65a1.07,1.07,0,0,1,.54.57c3.67,9.47,13.39,28.94,30.19,25.34a1.05,1.05,0,0,0,.53-1.78c-2.56-2.55-7.92-8.55-8.81-14.83a1.09,1.09,0,0,1,1.36-1.16l2.22.5a1.1,1.1,0,0,1,.68.45c5.14,7.7,13.77,15.51,27.07,13.12a1.07,1.07,0,0,0,.71-1.67,56.78,56.78,0,0,1-4.5-7.21,1.07,1.07,0,0,1,1-1.54c1.82.08,3.66.12,5.51.14a1.07,1.07,0,0,1,1.08.86c.56,3.45-2.26,6.53,4.5,1.19a14,14,0,0,0,2-1.9.92.92,0,0,1,.66-.31h0a.91.91,0,0,1,.89,1.31,57,57,0,0,1-4.62,7.46,1.07,1.07,0,0,0,.71,1.67c13.32,2.39,22-5.46,27.1-13.17a1.09,1.09,0,0,1,.68-.46c.73-.16,1.46-.32,2.19-.5a1.09,1.09,0,0,1,1.36,1.16c-.86,6.31-6.25,12.33-8.82,14.89a1.05,1.05,0,0,0,.53,1.78c16.87,3.62,26.6-16,30.24-25.46a1.06,1.06,0,0,1,.54-.58l1.28-.61a1.1,1.1,0,0,1,1.52.56l.95,2.33c1.88,4.65-.32,10.11-1.74,12.86a1.09,1.09,0,0,0,1.18,1.54c13.37-2.22,16.46-19.38,17.11-29.61a.88.88,0,0,1,.29-.6,1.11,1.11,0,0,1,1.78.4c1,2.52,2.17,5.06,3.2,7.14a1.1,1.1,0,0,0,2.09-.47,56.46,56.46,0,0,1,1.26-12c9.52-2.73,14.58-10.57,17.24-17.81a1.08,1.08,0,0,1,.55-.6l2.05-1a1.1,1.1,0,0,1,1.59.83c.63,6.31-3.17,13.35-5.06,16.4a1.06,1.06,0,0,0,.94,1.61c17.2-.24,22.05-21.36,23.38-31.39a1,1,0,0,1,.39-.68l.25-.2a19.17,19.17,0,0,0,3,.17l.91,1.28c2.94,4.11,2.09,9.91,1.36,12.9A1.09,1.09,0,0,0,535,400c9.47-3.9,11.15-14.84,10.62-24.31A23.75,23.75,0,0,0,560,374.05a1.05,1.05,0,0,0,.29-1.78A59.68,59.68,0,0,1,554,366a.91.91,0,0,1,.56-1.48h0a.93.93,0,0,1,.71.15,14,14,0,0,0,2.38,1.41c7.85,3.69,4.38,1.32,4.11-2.16a1.05,1.05,0,0,1,.84-1.08c1.8-.43,3.58-.88,5.33-1.37a1.09,1.09,0,0,1,1.38,1.27,57.21,57.21,0,0,1-2.67,8,1.07,1.07,0,0,0,1.08,1.46c13.51-.64,20.07-10.17,23.24-18.8a1.1,1.1,0,0,1,.56-.6l2-1a1.1,1.1,0,0,1,1.59.83c.63,6.31-3.17,13.35-5.06,16.4a1.06,1.06,0,0,0,.94,1.61c17.2-.24,22.05-21.36,23.38-31.39a1,1,0,0,1,.4-.68l1.17-.94a1.12,1.12,0,0,1,1.61.21l1.42,2c2.93,4.11,2.08,9.91,1.36,12.9A1.09,1.09,0,0,0,621.9,354c12.4-5.1,11.44-22.29,9.67-32.41a.88.88,0,0,1,.14-.65l0-.07a1.14,1.14,0,0,1,1.85,0c1.52,2.19,3.24,4.34,4.7,6.1a1.07,1.07,0,0,0,.93.38c0,.92.06,1.83.06,2.74,0-79.47-107.14-143.9-239.3-143.9S160.77,250.61,160.7,330.05A15.8,15.8,0,0,0,169.55,339.57Z"/><polygon class="cls-9" points="443.94 306.72 443.94 186.22 356.06 186.22 356.06 306.72 299.6 306.72 401.68 395.99 500.4 306.72 443.94 306.72"/><path class="cls-10" d="M639.3,330.12c0-.91,0-1.82-.06-2.74a1.06,1.06,0,0,1-.92-.38c-1.47-1.76-3.19-3.91-4.71-6.1a1.14,1.14,0,0,0-1.85,0l0,.07a.84.84,0,0,0-.15.65c1.77,10.12,2.73,27.31-9.67,32.41a1.09,1.09,0,0,1-1.51-1.23c.72-3,1.57-8.79-1.36-12.9l-1.42-2a1.12,1.12,0,0,0-1.61-.21l-1.17.94a1,1,0,0,0-.4.68c-1.33,10-6.18,31.15-23.38,31.39a1.06,1.06,0,0,1-.94-1.61c1.89-3.05,5.69-10.09,5.06-16.4a1.1,1.1,0,0,0-1.59-.83l-2,1a1.1,1.1,0,0,0-.56.6c-3.17,8.63-9.73,18.16-23.23,18.8a1.08,1.08,0,0,1-1.09-1.46,57.21,57.21,0,0,0,2.67-8,1.09,1.09,0,0,0-1.38-1.27c-1.75.49-3.53.94-5.33,1.37a1.05,1.05,0,0,0-.84,1.08c.27,3.48,3.74,5.85-4.11,2.16a14,14,0,0,1-2.38-1.41.93.93,0,0,0-.71-.15h0A.91.91,0,0,0,554,366a58.65,58.65,0,0,0,6.27,6.23,1.06,1.06,0,0,1-.3,1.78,23.75,23.75,0,0,1-14.35,1.61c.53,9.47-1.14,20.41-10.62,24.31a1.09,1.09,0,0,1-1.51-1.23c.73-3,1.58-8.79-1.36-12.9l-.91-1.28a19.17,19.17,0,0,1-3-.17l-.25.2a1.08,1.08,0,0,0-.39.68c-1.33,10-6.18,31.15-23.38,31.39a1.06,1.06,0,0,1-.94-1.61c1.89-3.05,5.69-10.09,5.06-16.4a1.1,1.1,0,0,0-1.59-.83l-2.05,1a1.08,1.08,0,0,0-.55.6c-2.66,7.24-7.72,15.08-17.24,17.81a56.46,56.46,0,0,0-1.26,12,1.1,1.1,0,0,1-2.09.47c-1-2.08-2.22-4.62-3.19-7.14a1.12,1.12,0,0,0-1.79-.4.93.93,0,0,0-.29.6c-.64,10.23-3.74,27.39-17.11,29.61a1.09,1.09,0,0,1-1.18-1.54c1.42-2.75,3.62-8.21,1.74-12.86l-.95-2.33a1.1,1.1,0,0,0-1.52-.56l-1.28.61a1.06,1.06,0,0,0-.54.58c-3.64,9.42-13.37,29.08-30.24,25.46a1.05,1.05,0,0,1-.53-1.78c2.57-2.56,8-8.58,8.82-14.89a1.09,1.09,0,0,0-1.36-1.16c-.73.18-1.46.34-2.19.5a1.09,1.09,0,0,0-.68.46c-5.13,7.71-13.78,15.56-27.1,13.17a1.07,1.07,0,0,1-.71-1.67,57,57,0,0,0,4.62-7.46.91.91,0,0,0-.89-1.31h0a.92.92,0,0,0-.66.31,13.52,13.52,0,0,1-2,1.9c-6.76,5.34-3.94,2.25-4.5-1.19a1.07,1.07,0,0,0-1.08-.86c-1.85,0-3.69-.06-5.51-.14a1.07,1.07,0,0,0-1,1.54,56.78,56.78,0,0,0,4.5,7.21,1.07,1.07,0,0,1-.71,1.67c-13.29,2.39-21.93-5.42-27.07-13.12a1.1,1.1,0,0,0-.68-.45l-2.22-.5a1.09,1.09,0,0,0-1.36,1.16c.89,6.28,6.25,12.28,8.81,14.83a1.05,1.05,0,0,1-.53,1.78c-16.8,3.6-26.51-15.87-30.19-25.34a1.07,1.07,0,0,0-.54-.57l-1.37-.65a1.1,1.1,0,0,0-1.52.56l-.9,2.24c-1.88,4.65.32,10.12,1.73,12.86a1.08,1.08,0,0,1-1.18,1.54c-13.28-2.21-16.42-19.14-17.09-29.39a.89.89,0,0,0-.3-.6l-.06-.06a1.13,1.13,0,0,0-1.8.4c-1,2.47-2.12,4.95-3.13,7a1.11,1.11,0,0,1-2.09-.48,58.55,58.55,0,0,0-3.45-19.78.56.56,0,0,0-.07-.16,41.63,41.63,0,0,1-2.61-5.7c-12.09-1.48-18.13-10.44-21.14-18.61a1.1,1.1,0,0,0-.56-.6l-2-1a1.09,1.09,0,0,0-1.59.82c-.63,6.32,3.17,13.36,5.06,16.41a1.06,1.06,0,0,1-.94,1.61c-17.2-.24-22.05-21.36-23.38-31.39a1,1,0,0,0-.4-.68,2.43,2.43,0,0,0-.25-.2,18,18,0,0,1-3,.16l-.92,1.29c-2.93,4.11-2.08,9.91-1.36,12.9a1.09,1.09,0,0,1-1.51,1.23c-9.47-3.9-11.14-14.84-10.62-24.31a23.75,23.75,0,0,1-14.35-1.61,1.06,1.06,0,0,1-.29-1.78,59.59,59.59,0,0,0,6.27-6.23.91.91,0,0,0-.56-1.48h0a1,1,0,0,0-.72.15,13.62,13.62,0,0,1-2.38,1.41c-7.85,3.69-4.37,1.32-4.1-2.16a1.06,1.06,0,0,0-.85-1.08c-1.79-.43-3.57-.88-5.33-1.37a1.08,1.08,0,0,0-1.37,1.27,55.92,55.92,0,0,0,2.67,8,1.08,1.08,0,0,1-1.09,1.46c-13.5-.64-20.06-10.17-23.24-18.8a1,1,0,0,0-.55-.6c-.69-.32-1.37-.65-2-1a1.11,1.11,0,0,0-1.6.83c-.63,6.31,3.17,13.35,5.06,16.4a1.06,1.06,0,0,1-.93,1.61C183.19,356,178.35,334.9,177,324.87a1,1,0,0,0-.39-.68c-.4-.31-.79-.63-1.17-.94a1.12,1.12,0,0,0-1.62.21l-1.41,2c-2.93,4.11-2.08,9.91-1.36,12.9a1.09,1.09,0,0,1-1.51,1.23,15.8,15.8,0,0,1-8.85-9.52v.07c0,16,4.33,31.34,12.32,45.7a2.17,2.17,0,0,1,.19.41,149.5,149.5,0,0,1,8.79,50.5,2.82,2.82,0,0,0,5.33,1.22c2.59-5.2,5.55-11.52,8-17.83a2.88,2.88,0,0,1,4.6-1l.16.14a2.26,2.26,0,0,1,.74,1.52c1.73,26.18,9.75,65.58,43.65,71.21a2.76,2.76,0,0,0,3-3.93c-3.61-7-9.23-17.11-4.43-29l2.32-5.74a2.85,2.85,0,0,1,3.89-1.43c1.15.56,2.31,1.12,3.48,1.67a2.68,2.68,0,0,1,1.39,1.46C263.53,469.2,275,493,317.92,483.76c2.12-.45,3.49-4.38,1.36-4.54-14-1.08-12-6.38-9.18-11.92.87-1.69,1.56-3.4,3.46-3s3.77.86,5.67,1.27a2.8,2.8,0,0,1,1.74,1.17c13.12,19.64,19.51,21.33,53.46,15.22,2-.36,3.81-4,1.81-4.25-21.64-2.71-23.86-18-11-13.92-.32.35.9.9,4.59,1.74l.21.05.52.12c15.63,3.72,11.15,8.67,11.15,8.67,4.78-1.11,5.9-3.7,5.82-6.05,3.21.77,6.52,1.79,9.58,1.81a2.76,2.76,0,0,1,2.75,2.22c1.43,8.78-5.76,16.65,11.51,3a35.9,35.9,0,0,0,5.07-4.86,2.4,2.4,0,0,1,1.68-.78s0,0,.05,0c7.26-8,18.79-3,18.86-1.25.42,11.81-8.25,14.47-12.21,16.58-1.78.94-.14,1.29,1.87.92,35.85-6.54,39.86-13.45,53-19.37.66-.29,1-1,1.73-1.17,1.43-.31,2.84-.64,4.25-1,.91,2.37,2.39.95,4.82,3.11,8.94,8,13,3.84,13,3.84-7.16-6.33,2.39-15.63,2.39-15.63a44.91,44.91,0,0,0,5.35-2.81c9.27-8.15,20.54,5.48,15.38,17.1-.86,2-9.1,11.51-7.09,10.69,30.26-12.46,17.76-12.06,27-36.11a2.67,2.67,0,0,1,1.38-1.46l3.26-1.58a2.85,2.85,0,0,1,3.9,1.43l2.41,6c4.8,11.87-.82,22-4.43,29a2.76,2.76,0,0,0,3,3.93c34.14-5.67,42-45.64,43.68-71.76a2.26,2.26,0,0,1,.74-1.52,2.84,2.84,0,0,1,4.56,1c2.5,6.44,5.53,12.93,8.17,18.24a2.82,2.82,0,0,0,5.34-1.21,150.52,150.52,0,0,1,10-53.86,2.39,2.39,0,0,1,.13-.28,100.32,100.32,0,0,0,5.72-13.45c.24-.5.47-1,.72-1.52a1.77,1.77,0,0,1-.16-.22A89.33,89.33,0,0,0,639.3,330.12Z"/><path class="cls-7" d="M219.25,346.77s2.13,42.6-8.55,57.42c0,0-83.45-21.63-74.57-103.75,0,0,32.1-91.89-14.6-112.93,0,0-17.55-17.42,21.6-5.07,0,0,43,17,28.44,118.29C171.57,300.73,168.46,332.24,219.25,346.77Z"/><path class="cls-7" d="M580.75,346.77s-2.13,42.6,8.55,57.42c0,0,83.45-21.63,74.57-103.75,0,0-32.1-91.89,14.6-112.93,0,0,17.55-17.42-21.6-5.07,0,0-43,17-28.44,118.29C628.43,300.73,631.54,332.24,580.75,346.77Z"/><path class="cls-7" d="M208.29,406.71c5.77-5.43,17.89-22.45,11.78-66.7a1.55,1.55,0,0,0-3-.1c-3.2,16.65-10,52.73-11.32,65.51A1.54,1.54,0,0,0,208.29,406.71Z"/><path class="cls-7" d="M588.65,409.27c-5.87-5.77-17.16-22.78-11.52-65.22a1.72,1.72,0,0,1,3.4-.1c3.22,16.86,9.61,51,11.05,63.9A1.72,1.72,0,0,1,588.65,409.27Z"/><path class="cls-2" d="M677.28,178c10.76,0,1.19,9.5,1.19,9.5-46.7,21-14.6,112.93-14.6,112.93,2.81,26-3.62,45.89-13.73,61,1.12.28,1.77.46,1.77.46C691,399,663.57,428.83,663.57,428.83c-19-1.43-33.64-4.66-44.89-8.53-.1,2.32-.13,4.48-.11,6.43a2.83,2.83,0,0,1-5.34,1.21c-1.81-3.63-3.79-7.81-5.66-12.15a81.09,81.09,0,0,1-7.9-4.25c-1.26,18-5.55,41.95-19.06,56.95v12.35a57.25,57.25,0,0,1-7.67,28.64c4.4,3.71,7.07,8.5,7.07,13.73h0v24.72c0,11.69-13.3,21.25-29.55,21.25h-5.33a25.81,25.81,0,0,1-14.38,4.27h0c-1.08,0-1.74-1-1.18-1.72a40.72,40.72,0,0,0,5-8.73,26.17,26.17,0,0,0-6.42-3.18A30.61,30.61,0,0,1,508.6,574a49.79,49.79,0,0,0-1.6,12.78,1.3,1.3,0,0,1-1.43,1.15,1.44,1.44,0,0,1-1.25-.65c-1.32-2.22-2.84-4.93-4.09-7.62a1.41,1.41,0,0,0-1.32-.74,1.57,1.57,0,0,0-1,.31.91.91,0,0,0-.38.64c-.82,10.92-4.78,29.24-21.88,31.61l-.26,0c-1,0-1.74-.88-1.25-1.66,1.8-2.93,4.62-8.76,2.21-13.73l-1.2-2.49a1.44,1.44,0,0,0-1.31-.73,1.64,1.64,0,0,0-.65.13l-1.63.66a1.2,1.2,0,0,0-.69.61c-4.27,9.23-15.1,27.65-33.53,27.65a29.31,29.31,0,0,1-5.17-.47c-1.06-.19-1.44-1.26-.68-1.89,3.29-2.73,10.19-9.17,11.29-15.9.11-.7-.58-1.27-1.4-1.27a2,2,0,0,0-.34,0c-.93.19-1.86.36-2.81.53a1.46,1.46,0,0,0-.86.49c-5.75,7.21-14.94,14.53-28.58,14.53a40.91,40.91,0,0,1-6.1-.47c-1-.15-1.5-1.1-.91-1.78a59.92,59.92,0,0,0,5.92-8c.39-.65-.2-1.41-1.09-1.41h-.08a1.32,1.32,0,0,0-.85.33,16.57,16.57,0,0,1-2.53,2c-3.38,2.23-4.89,3.08-5.52,3.08-1,0,.19-2.1-.25-4.34a1.36,1.36,0,0,0-1.38-.93q-3.56,0-7.05-.14h-.07c-1,0-1.73.88-1.26,1.64a59.74,59.74,0,0,0,5.76,7.7c.59.68.1,1.63-.91,1.78a41,41,0,0,1-6.11.47c-13.6,0-22.78-7.28-28.53-14.47a1.45,1.45,0,0,0-.87-.49l-2.84-.53a2,2,0,0,0-.34,0c-.82,0-1.51.57-1.4,1.27,1.14,6.71,8,13.11,11.28,15.84.76.63.38,1.7-.68,1.89a29.31,29.31,0,0,1-5.17.47c-18.34,0-29.15-18.25-33.46-27.52a1.29,1.29,0,0,0-.7-.61c-.59-.23-1.17-.46-1.74-.7a1.81,1.81,0,0,0-.64-.12,1.44,1.44,0,0,0-1.31.72l-1.16,2.4c-2.41,5,.41,10.8,2.22,13.73.48.78-.24,1.66-1.26,1.66l-.25,0c-17-2.35-21-20.43-21.87-31.38a.93.93,0,0,0-.38-.64l-.08-.06a1.62,1.62,0,0,0-1-.31,1.45,1.45,0,0,0-1.33.74c-1.24,2.64-2.72,5.28-4,7.46a1.43,1.43,0,0,1-1.25.64,1.3,1.3,0,0,1-1.43-1.15,53.08,53.08,0,0,0-4.4-21.12l-.1-.17a39.93,39.93,0,0,1-3.33-6.09,35.29,35.29,0,0,1-4.49-.76c-7.05,1.62-12.73,4.67-16.37,10.5h-10c-16.25,0-29.55-9.56-29.55-21.25V523.21h0c0-5,2.48-9.68,6.6-13.33a57.18,57.18,0,0,1-7.91-29V467c-12.58-15.14-16.61-38.32-17.8-55.81a82.94,82.94,0,0,1-7.74,4.25c-1.91,4.46-3.95,8.77-5.81,12.49a2.72,2.72,0,0,1-2.49,1.54,2.75,2.75,0,0,1-2.84-2.76c0-2,0-4.23-.12-6.63-11.32,4-26.13,7.27-45.45,8.73,0,0-27.41-29.88,11.66-66.94,0,0,.65-.18,1.77-.46-10.11-15.1-16.54-35-13.73-61,0,0,32.1-91.89-14.6-112.93,0,0-9.57-9.5,1.19-9.5,3.81,0,10.17,1.2,20.41,4.43,0,0,38,15,30.46,101,27.63-48.47,97.09-85.25,182.47-94.78v-2.43h87.88v2.43c85.38,9.53,154.84,46.31,182.47,94.78-7.55-86,30.46-101,30.46-101,10.24-3.23,16.6-4.43,20.41-4.43m0-9.6c-5.37,0-12.77,1.54-23.3,4.86l-.64.23c-1.29.51-12.86,5.45-22.8,22.31C621.75,210.7,616.87,230,616,253.4c-35-37.52-94.87-64.63-164.85-73.57a9.58,9.58,0,0,0-7.17-3.22H356.06a9.58,9.58,0,0,0-7.17,3.22c-70,8.94-129.87,36-164.85,73.57-.91-23.4-5.79-42.7-14.58-57.59C159.52,179,148,174,146.66,173.5l-.64-.23c-10.53-3.31-17.93-4.86-23.3-4.86-9.22,0-12.62,4.9-13.82,7.82-3.24,7.87,3,15.28,5.86,18.1a9.72,9.72,0,0,0,2.82,1.94c37.62,16.95,9.78,100.17,9.48,101a9.76,9.76,0,0,0-.48,2.14c-2.39,22.14,1.2,42.19,10.69,59.73C118,379.56,116.1,398.33,118.13,410.8a50.06,50.06,0,0,0,11.22,24.52,9.62,9.62,0,0,0,7.08,3.11q.36,0,.72,0a207.58,207.58,0,0,0,36.69-5.83,12.19,12.19,0,0,0,2.09,2.83,12.63,12.63,0,0,0,8.91,3.7,12.32,12.32,0,0,0,9.49-4.41c3,14.48,7.95,26.41,14.75,35.64v10.51a67,67,0,0,0,6,27.66,25.91,25.91,0,0,0-4.69,14.71v24.72c0,17,17.57,30.85,39.16,30.85h10a9.61,9.61,0,0,0,8.15-4.51c1.05-1.68,2.78-3.69,6.91-5.21.21.35.43.71.66,1.06a43.29,43.29,0,0,1,3.37,16.59,10.58,10.58,0,0,0,3.07,7.59,11.26,11.26,0,0,0,8,3.28,11.66,11.66,0,0,0,1.78-.14c4.76,13.47,14.07,21.83,26.79,23.59a10.36,10.36,0,0,0,1.57.11,11.13,11.13,0,0,0,8.3-3.68c8.54,9.14,18.8,14.13,29.75,14.13a39.15,39.15,0,0,0,6.86-.62,11,11,0,0,0,7.72-5.54,44.41,44.41,0,0,0,14,2.21,51.07,51.07,0,0,0,7.53-.58,11.08,11.08,0,0,0,3.69-1.23,11,11,0,0,0,3.69,1.23,50.84,50.84,0,0,0,7.52.58,44.37,44.37,0,0,0,14-2.21,11,11,0,0,0,7.72,5.54,39.15,39.15,0,0,0,6.86.62c11,0,21.22-5,29.75-14.13a11.14,11.14,0,0,0,8.3,3.68A10.4,10.4,0,0,0,477,621c12.73-1.76,22-10.12,26.79-23.59a11.53,11.53,0,0,0,1.77.13,11.22,11.22,0,0,0,8-3.28,10.54,10.54,0,0,0,3.07-7.58,37.51,37.51,0,0,1,.34-5.28,39.09,39.09,0,0,0,5.11-2.52,11,11,0,0,0,8.68,4.15h.16a35.8,35.8,0,0,0,16.91-4.28h2.66c21.59,0,39.16-13.84,39.16-30.85V523.21a26,26,0,0,0-5.12-15.33,67,67,0,0,0,5.72-27V472c7.46-9.44,12.82-21.93,16-37.32a12.3,12.3,0,0,0,9.48,4.4,12.61,12.61,0,0,0,8.92-3.69,12.23,12.23,0,0,0,2-2.69,207.79,207.79,0,0,0,36.19,5.7q.36,0,.72,0a9.62,9.62,0,0,0,7.08-3.11,50.06,50.06,0,0,0,11.22-24.52c2-12.47.15-31.24-19.14-51.66,9.49-17.54,13.08-37.59,10.69-59.73a9.76,9.76,0,0,0-.48-2.14c-.08-.22-7.73-22.41-9.74-46.54-2.44-29.29,4-47.62,19.22-54.46a9.59,9.59,0,0,0,2.82-1.94c2.84-2.82,9.1-10.23,5.86-18.1-1.2-2.92-4.6-7.82-13.82-7.82Z"/></g></g></svg>